<svg xmlns="http://www.w3.org/2000/svg" viewBox="0 0 639.14 458.23"><defs><style>.cls-1{fill:#ff7f15;}.cls-2{fill:#d35c02;}.cls-3{fill:#3f3f3f;}.cls-4{fill:#ffd2b3;}.cls-5{fill:#767676;}.cls-6{fill:#979797;}.cls-7{fill:#dcdcdc;}</style></defs><title>2450975_high</title><g id="guy1"><path class="cls-1" d="M145.3,296.58l-1.14,2.07a1.3,1.3,0,0,1-.13.15l.16,0s1.63-.2,2.07.61a13.94,13.94,0,0,1,1-2.17A12.12,12.12,0,0,1,145.3,296.58Z" transform="translate(-61.77 -206.33)"/><path class="cls-1" d="M152.49,304.7a1.25,1.25,0,0,0-2.2.33l1.76,2.64a1.34,1.34,0,0,1-.28,1.79s-4.48,3.6-6.5,7.37a1.49,1.49,0,0,0-.12,1.33c.4,1.06,1.85,2.09,3.24,2.82l.13-.2-.06,0,.06,0,.23-.37-.23.37C155.17,318.07,155.17,310.05,152.49,304.7Z" transform="translate(-61.77 -206.33)"/><path class="cls-2" d="M157.28,307.63c-1.2-.91-5.14-5.28-6.2-6.46-.45-.17-1.39-.49-2.62-.83a1.34,1.34,0,0,1-.93-1.65,1.32,1.32,0,0,1,1.41-.95l0-.23a12.43,12.43,0,0,1-1.69-.29,13.94,13.94,0,0,0-1,2.17v0a1.93,1.93,0,0,1-.54,1.81,18.37,18.37,0,0,0,.71,9.62c1-1.12,2-2,2.72-2.66l-1.83-2.74a1.34,1.34,0,0,1,2.23-1.49l.73,1.09a1.25,1.25,0,0,1,2.2-.33c2.67,5.35,2.68,13.37-4,16.08l-.13.2c.32.17.64.33.94.46,1.73-1.91,6.65-7.61,8.09-12.14C157.55,308.83,157.61,307.87,157.28,307.63Z" transform="translate(-61.77 -206.33)"/><path class="cls-2" d="M147,323.79c0-.16,0-.32,0-.48-1.63-.87-3.67-2.28-4.4-4.19a4.25,4.25,0,0,1-.24-1h-.65A8.81,8.81,0,0,0,147,323.79Z" transform="translate(-61.77 -206.33)"/><path class="cls-1" d="M147,323.79a8.81,8.81,0,0,1-5.29-5.67h.65a4.26,4.26,0,0,1,.5-2.55,23.88,23.88,0,0,1,3.53-4.73,18.37,18.37,0,0,1-.71-9.62,1.52,1.52,0,0,1-1.33.68l-1.09-.22,1.08.27s0,10-.73,11.06c-.37.51-3,3.22-3.88,4.06-.58.54-1.24-1.24-1.65-2.87a46.9,46.9,0,0,0,.13,7.14c.65,5.82-4.5,22-4.69,22.53a2.24,2.24,0,0,0,.54,1.72c.83,1,2.61,1.54,5.08,1.64,2-6.42,1.57-13.64,1.32-20.35a37.79,37.79,0,0,1-.78-4.46,1.34,1.34,0,1,1,2.68,0h0c0,.77,1.21,6.31,2.35,11.21a1.36,1.36,0,0,1,0,.35c0,.08-.32,8.21-.94,14.7-.18,1.93.06,3.26.75,4.07a5.17,5.17,0,0,0,3.27,1.36C157.63,347.94,147,334.59,147,323.79Z" transform="translate(-61.77 -206.33)"/><path class="cls-2" d="M139.19,347.23c.66,0,1.36,0,2.11,0,.49-5.66.76-12.07.81-13.16-.34-1.47-1-4.54-1.6-7.18C140.77,333.58,141.21,340.81,139.19,347.23Z" transform="translate(-61.77 -206.33)"/><path class="cls-2" d="M148.55,324c-.4-.17-.93-.41-1.51-.72,0,.16,0,.32,0,.48.5.23,1,.44,1.61.64Z" transform="translate(-61.77 -206.33)"/><path class="cls-2" d="M151.17,334.81c-.24-1.21-1.87-7.8-2.52-10.38-.56-.21-1.11-.42-1.61-.64,0,10.8,10.59,24.15.85,30.32.88.13,1.84.19,2.82.26A6.13,6.13,0,0,0,156,352C155.06,348.79,151.46,336.26,151.17,334.81Z" transform="translate(-61.77 -206.33)"/><path class="cls-1" d="M143.05,301.61c-.15-.16-1.38-1.5-.35-2.31l-.19-.06-.6,0c-1.75,2.22-2.81,6.22-3.37,10.4a54,54,0,0,1,4-8.13Z" transform="translate(-61.77 -206.33)"/><path class="cls-1" d="M129,292.73c-.69-.46-8.17-5.07-12.48-7.73a7,7,0,0,0-3.6,3,4.53,4.53,0,0,0-.45,2.12c7.3,2.44,15.1,4.37,23,6.17C132.64,294.75,129.56,293.08,129,292.73Z" transform="translate(-61.77 -206.33)"/><path class="cls-2" d="M112.5,290.12a7,7,0,0,0,.3,1.94l15.13,3.86.21.07,10,4.41a14.66,14.66,0,0,1,1.13-2.11l-3.75-2C127.6,294.48,119.8,292.55,112.5,290.12Z" transform="translate(-61.77 -206.33)"/><path class="cls-1" d="M150.1,275.51a9.66,9.66,0,0,0-9,13.12,13.62,13.62,0,0,0,14.11-1.38,12.87,12.87,0,0,0,2.42-8.18A9.67,9.67,0,0,0,150.1,275.51Z" transform="translate(-61.77 -206.33)"/><path class="cls-2" d="M157.6,279.07a12.87,12.87,0,0,1-2.42,8.18,13.62,13.62,0,0,1-14.11,1.38,9.69,9.69,0,0,0,8,6.15c.24-.27.49-.55.76-.82-.27.27-.51.55-.76.82a10,10,0,0,0,1.05.08,9.67,9.67,0,0,0,7.5-15.79Z" transform="translate(-61.77 -206.33)"/><path class="cls-3" d="M162.47,285.19A12.37,12.37,0,1,0,143,295.26l-.7,1.27-.61,0c-4.09-2.16-10.51-5.6-11.13-6-.94-.63-12.61-7.81-13.11-8.11a1.34,1.34,0,0,0-1.07-.15,10,10,0,0,0-5.79,4.55,8.29,8.29,0,0,0-.09,6.86,1.35,1.35,0,0,0,.92.83l15.76,4,10,4.44c-2,6.56-2,15.28-1.61,18.71.48,4.36-3.16,17-4.61,21.53a4.85,4.85,0,0,0,1.08,4.16c1.62,1.9,4.68,2.77,9.08,2.59a6.91,6.91,0,0,0,1.43,4.58c1.83,2.15,4.94,2.36,8,2.56a8.87,8.87,0,0,0,8.09-4.09,1.35,1.35,0,0,0,.13-1c-1.29-4.48-4.71-16.39-5-17.63s-2.07-8.56-2.64-10.87c1.7-1.85,7.16-8.08,8.82-13.36.1-.35.83-3.14-1.1-4.59-.83-.62-4.14-4.22-6-6.35a1.33,1.33,0,0,0-.52-.36l-.79-.28.12-1A12.38,12.38,0,0,0,162.47,285.19Zm-22,0a9.68,9.68,0,1,1,9.68,9.68A9.69,9.69,0,0,1,140.42,285.19Zm1.49,14,.6,0,.19.06c-1,.81.2,2.15.35,2.31l-.5-.13a54,54,0,0,0-4,8.13C139.1,305.42,140.16,301.43,141.91,299.21ZM128.14,296l-.21-.07-15.13-3.86A5.41,5.41,0,0,1,113,288a7,7,0,0,1,3.6-3c4.31,2.65,11.78,7.26,12.48,7.73s7.26,4,10.24,5.55a14.66,14.66,0,0,0-1.13,2.11Zm29.14,11.64c.33.24.26,1.2.13,1.67-1.43,4.53-6.35,10.23-8.09,12.14-1.61-.71-3.69-2-4.18-3.29a1.49,1.49,0,0,1,.12-1.33c2-3.76,6.46-7.33,6.5-7.37a1.34,1.34,0,0,0,.28-1.79l-2.49-3.73a1.34,1.34,0,0,0-2.23,1.49l1.83,2.74a30.06,30.06,0,0,0-6.25,7.39,4.17,4.17,0,0,0-.26,3.56c1,2.59,4.4,4.27,5.91,4.91.56,2.23,2.36,9.5,2.62,10.78.29,1.45,3.89,14,4.82,17.22a6.13,6.13,0,0,1-5.29,2.33c-2.57-.17-5-.34-6.09-1.62-.69-.81-.94-2.14-.75-4.07.62-6.49.93-14.62.94-14.7a1.36,1.36,0,0,0,0-.35c-1.14-4.91-2.33-10.44-2.35-11.21h0a1.34,1.34,0,1,0-2.68,0c0,1.27,1.77,9,2.38,11.64,0,1.09-.32,7.5-.81,13.16-3.58.18-6.14-.39-7.19-1.63a2.24,2.24,0,0,1-.54-1.72c.19-.56,5.34-16.71,4.69-22.53a46.9,46.9,0,0,1-.13-7.14c.4,1.63,1.06,3.41,1.65,2.87.92-.85,3.51-3.56,3.88-4.06.74-1,.73-11.06.73-11.06l-1.08-.27,1.09.22c1,.21,2.28-1.66,1.87-2.49s-2.08-.62-2.08-.62l-.16,0a1.3,1.3,0,0,0,.13-.15l1.14-2.07a12.3,12.3,0,0,0,3.67.92l0,.23a1.32,1.32,0,0,0-1.41.95,1.34,1.34,0,0,0,.93,1.65c1.22.34,2.17.67,2.62.83C152.14,302.34,156.08,306.72,157.28,307.63Z" transform="translate(-61.77 -206.33)"/><path class="cls-4" d="M147.43,280.77c1.62-.7,3.31.35,4.54-1.35a1.74,1.74,0,0,0-.1-2.09c-1.34-1.81-4.92-.87-6.31.55s-2.88,2.76-3.15,4.71c-.11.8,1,1,1.32.3a4.94,4.94,0,0,1,1.71-1.53A14.82,14.82,0,0,1,147.43,280.77Z" transform="translate(-61.77 -206.33)"/><path class="cls-4" d="M124.18,291c-.37-.08-.76-.51-1.15-.65a7.16,7.16,0,0,1-2.38-1.71,2.51,2.51,0,0,0-.83-.43l-.09,0,0-.06a1.26,1.26,0,0,0-.61-.36,7.41,7.41,0,0,0-2-1.21,1.37,1.37,0,1,0-1.26,2.41c.52.25,1.07.47,1.6.7a1.63,1.63,0,0,0,1.16.32,1.59,1.59,0,0,0,.55.13c.76,0,1.2.77,1.86,1a13.42,13.42,0,0,0,3.11,1.23C125,292.48,125,291.16,124.18,291Zm-5.27-3.3h0C118.29,287.49,118.84,287.6,118.91,287.67Z" transform="translate(-61.77 -206.33)"/><path class="cls-4" d="M151.28,311.27a30,30,0,0,0-4.82,4.59c-1,1.28,1.11,2.8,2.09,1.47.61-.83,1.1-1.73,1.76-2.52s1.3-1.75,2-2.61C152.79,311.56,151.87,310.8,151.28,311.27Z" transform="translate(-61.77 -206.33)"/><path class="cls-4" d="M147.23,330.21c-.59-2-.43-4.32-1.56-6.07-.42-.65-1.55-.44-1.39.44a66.88,66.88,0,0,1,1.37,14c-.08,3.41-.8,8.29,1.38,11.14a1.39,1.39,0,0,0,2.33-.41c1.65-3.38-.31-8.72-.83-12.23A48.46,48.46,0,0,0,147.23,330.21Z" transform="translate(-61.77 -206.33)"/><path class="cls-4" d="M138,332.63a9.15,9.15,0,0,1-.86,2.58,24,24,0,0,0-.84,3.09c-.43,1.57-1.55,3.88-.44,5.33a1.2,1.2,0,0,0,1.68.14c1.35-1.11,1.28-3.73,1.47-5.34a28.55,28.55,0,0,0,.36-5.86C139.28,331.78,138.07,331.87,138,332.63Z" transform="translate(-61.77 -206.33)"/><path class="cls-3" d="M106.28,235.38h0Z" transform="translate(-61.77 -206.33)"/><path class="cls-3" d="M116.54,239.79a10.44,10.44,0,0,0-8.7-4.51,12.72,12.72,0,0,0-1.55.1,10.33,10.33,0,0,0-3.15,1c-7,3.32-16.43,14.69-21.4,21.17-7.8,10.17-14.62,21.18-17.8,28.73-1.78,4.22-2.44,7.26-2.08,9.58a3.39,3.39,0,0,0,5.22,2.31c5.17-3.42,9.65-8.34,14-13.09,4.7-5.16,9.52-10.45,15.15-13.7-.59,7.24-1.56,14.36-2.51,21.29-1.11,8.06-2.25,16.39-2.81,25l0,.73c-.21,3.33-.76,12.19-2.36,14.85-2,3.29-2.52,7.35-3,11.29-.17,1.24-.32,2.41-.52,3.53a20.64,20.64,0,0,1-.77,3.2c-1.84,5.22-2.42,7.88-1,9.84a3.81,3.81,0,0,0,3.15,1.62c1.65,0,3-1,4.72-2.17a14.78,14.78,0,0,1,3.72-2.16c4.45-1.12,7.76-5.52,10.4-13.86a147.5,147.5,0,0,0,4.15-18.95c.57-3.31,1.06-6.17,1.47-7.46A276.78,276.78,0,0,0,119,280.64a142.83,142.83,0,0,0,1.81-23.18C120.6,249.23,119.22,243.46,116.54,239.79Z" transform="translate(-61.77 -206.33)"/><path class="cls-5" d="M97.6,262.83C84.5,264,77.26,277.74,67.06,287.57c-1.4,3.32-2.12,6-1.85,7.74,11.77-7.78,20-24.24,34.21-29.15C99.5,264.25,99,262.83,97.6,262.83Z" transform="translate(-61.77 -206.33)"/><path class="cls-6" d="M94.28,317.86c-.26,4-.74,13.54-2.88,17.1s-2.31,9-3.13,13.66c24.16-23.85,22.89-70.33,22.89-102.74,0-4.34-2.79-5.9-6.57-6.46-10.12,4.77-31.12,33-37.52,48.15C77.26,277.74,84.5,264,97.6,262.83c1.38,0,1.91,1.42,1.83,3.32.18-.06.36-.15.54-.21C99.09,283.73,95.43,300,94.28,317.86Z" transform="translate(-61.77 -206.33)"/><path class="cls-5" d="M106.69,238.75a7.13,7.13,0,0,0-2.11.68c3.78.56,6.57,2.12,6.57,6.46,0,32.41,1.27,78.89-22.89,102.74a24.07,24.07,0,0,1-.91,3.73c-4.58,13,1.5,4,6.53,2.72,9.46-2.38,11.61-31.75,13.61-38C111.72,303.87,127.95,236.17,106.69,238.75Z" transform="translate(-61.77 -206.33)"/><path class="cls-7" d="M93.68,256.76c3-2,7-2,9.51-4.53a1.67,1.67,0,0,0-.91-2.91c-4.31-.56-7,3.43-9.8,6a.93.93,0,0,0,1.2,1.41Z" transform="translate(-61.77 -206.33)"/><path class="cls-7" d="M103.1,303.6c.36-8.28,3.73-16.29,2.68-24.63-.21-1.68-2.58-1.41-2.83.11a148.6,148.6,0,0,0-1.82,24.33c0,1.26,1.92,1.48,2,.19Z" transform="translate(-61.77 -206.33)"/></g><g id="guy2"><path class="cls-1" d="M258.91,366.65a9.08,9.08,0,0,0,2.21-6.24A11.17,11.17,0,0,0,244,357.09l-.7,9.86C247.87,370.73,254.08,371.48,258.91,366.65Z" transform="translate(-61.77 -206.33)"/><path class="cls-2" d="M261.12,360.41a9.08,9.08,0,0,1-2.21,6.24c-4.83,4.83-11,4.08-15.65.29l-.3,4.22a1.34,1.34,0,0,1-.59,1l-.14.09a11.19,11.19,0,0,0,20.17-6.12,1.25,1.25,0,0,1,0-.4A11.18,11.18,0,0,0,261.12,360.41Z" transform="translate(-61.77 -206.33)"/><path class="cls-2" d="M241.12,396.42a11.43,11.43,0,0,1-2.29,3,.67.67,0,0,1-.88-.14L235.28,396a.68.68,0,0,1-.13-.58l.92-3.87a80.82,80.82,0,0,0-10.46-3.07c-1.62.37-2.91.65-3.59.79l-.11.62a47.22,47.22,0,0,1,10.67,5.31,1.34,1.34,0,0,1,.56,1l.69,16.86c2.52.64,9.78,2.06,12.73-1.54C245.09,406.91,242.82,400.33,241.12,396.42Z" transform="translate(-61.77 -206.33)"/><path class="cls-2" d="M264.85,368.17a13.87,13.87,0,0,1-20.7,9.4l-.34.57a6.29,6.29,0,0,1-.06.71,1.31,1.31,0,0,1,.92.29c2,1.64,4.2,3.43,5.1,4.08,2.68-1,15.31-7.94,17.32-9.35A6.58,6.58,0,0,0,264.85,368.17Z" transform="translate(-61.77 -206.33)"/><path class="cls-2" d="M203.27,424.35c2.39.17,5.56-.5,9.51-3.16l4.6-20.51,1.86-11.06c-3.33,7.88-5,16.61-8.64,25.35C209,418.07,206.6,422,203.27,424.35Z" transform="translate(-61.77 -206.33)"/><path class="cls-1" d="M233.41,372c7.37-4.91,4.63-14.32,3.08-23.07H236c-3.54.14-6.66,1.76-7.08,2.43-.27,1.42,1.61,9.26,3.53,15.79a1.35,1.35,0,0,1-.34,1.33l-7.28,7.28a1.38,1.38,0,0,1-.4.28,1.46,1.46,0,0,1-.35.1c-.36.05-9,1.46-11,9.44a88.45,88.45,0,0,0-2.63,14.31,1.34,1.34,0,0,1-.52,1c-3.29,2.54-12.23,10.1-14,14.6-.87,2.2.25,5.26,2.59,7.11a8.59,8.59,0,0,0,4.75,1.76c3.33-2.31,5.78-6.28,7.32-9.38,3.64-8.74,5.31-17.47,8.64-25.35l.57-3.38a1.34,1.34,0,0,1,1.55-1.1h0A36.18,36.18,0,0,1,233.41,372Z" transform="translate(-61.77 -206.33)"/><path class="cls-2" d="M231.31,378.59a1.34,1.34,0,0,1-.24-2.67H231c.87-.22,5.41-3,9.34-5.62l.42-5.93a17.91,17.91,0,0,1-2-3.1,17.91,17.91,0,0,0,2,3.1l.95-13.38a6.53,6.53,0,0,0-5.22-2.05c1.55,8.76,4.29,18.16-3.08,23.07a36.18,36.18,0,0,0-12,13.14,1.32,1.32,0,0,1,1.06,1.28l2.52-.56a1.33,1.33,0,0,1,.48-.11,77.69,77.69,0,0,0,12.9-4,3.88,3.88,0,0,1-1.5-4.11l.09-.25c.4-1.22.72-2.19,2.46-2,.18,0,.39,0,.67,0h1.36a13.82,13.82,0,0,1-1.41-1.68C236.29,376.16,232.45,378.49,231.31,378.59Z" transform="translate(-61.77 -206.33)"/><path class="cls-3" d="M265.08,365.13a13.86,13.86,0,0,0-20.87-11.5l.21-3a1.35,1.35,0,0,0-.23-.85c-1.91-2.81-5.4-4-9.82-3.4-3.4.47-7.31,2.13-8,4.1-.74,2.21,1.89,11.85,3.28,16.66l-6.42,6.42c-2.06.41-10.54,2.62-12.77,11.34a95.46,95.46,0,0,0-2.66,14.2c-2.26,1.79-12.21,9.86-14.39,15.37-1.31,3.31.13,7.6,3.43,10.21,4.6,3.63,11.28,3,17.88-1.58a1.33,1.33,0,0,0,.54-.8L220,401.21l1.45-8.61a45.65,45.65,0,0,1,9,4.44l.7,17.16a1.34,1.34,0,0,0,.93,1.22c.52.17,12.68,4,17.07-2.86a1.34,1.34,0,0,0,.15-1.13c-.48-1.53-4.28-13.55-6.84-18.29l-.69-10.21,1.87-1.12a64.37,64.37,0,0,0,5.23,4c.73.36,1.13.56,10.63-4.59,2.7-1.47,9.07-5,9.69-5.7.76-.91.72-3.07.3-4.74A8.7,8.7,0,0,0,265.08,365.13Zm-13.47-10.72a11.21,11.21,0,0,1,10.79,11.35,1.25,1.25,0,0,0,0,.4,11.18,11.18,0,0,1-20.17,6.12l.14-.09a1.34,1.34,0,0,0,.59-1l1-14.07A11.1,11.1,0,0,1,251.62,354.42Zm-14.92,34.5c-1.79-.69-3.78-1.31-5.6-1.82,2.24-.62,4.54-1.33,6.53-2.1ZM212.78,421.2c-7.78,5.24-12.55,2.74-14.26,1.39-2.35-1.86-3.46-4.91-2.59-7.11,1.78-4.49,10.71-12.06,14-14.6a1.34,1.34,0,0,0,.52-1,88.45,88.45,0,0,1,2.63-14.31c2-8,10.66-9.38,11-9.44a1.46,1.46,0,0,0,.35-.1,1.38,1.38,0,0,0,.4-.28l7.28-7.28a1.35,1.35,0,0,0,.34-1.33c-1.92-6.53-3.8-14.37-3.53-15.79.43-.67,3.54-2.29,7.08-2.43,1.81-.07,4.21.25,5.67,2.05l-1.37,19.32c-3.93,2.6-8.47,5.4-9.34,5.62h.08a1.34,1.34,0,0,0,.24,2.67c1.14-.1,5-2.43,8.68-4.84a13.82,13.82,0,0,0,1.41,1.68h-1.36c-.28,0-.49,0-.67,0-1.74-.15-2.06.81-2.46,2l-.09.25a3.88,3.88,0,0,0,1.5,4.11,77.69,77.69,0,0,1-12.9,4,1.33,1.33,0,0,0-.48.11l-2.52.56a1.32,1.32,0,0,0-1.09-1.29,1.34,1.34,0,0,0-1.55,1.1l-2.42,14.44Zm21.05-8.1-.69-16.86a1.34,1.34,0,0,0-.56-1,47.22,47.22,0,0,0-10.67-5.31l.11-.62c.68-.14,2-.42,3.59-.79a80.82,80.82,0,0,1,10.46,3.07l-.92,3.87a.68.68,0,0,0,.13.58l2.67,3.28a.67.67,0,0,0,.88.14,11.43,11.43,0,0,0,2.29-3c1.7,3.9,4,10.48,5.45,15.14C243.61,415.16,236.35,413.74,233.83,413.1Zm15.94-29.88c-.9-.66-3.12-2.45-5.1-4.08a1.31,1.31,0,0,0-.92-.29,6.29,6.29,0,0,0,.06-.71l.34-.57a13.86,13.86,0,0,0,20.7-9.4,6.58,6.58,0,0,1,2.24,5.7C265.08,375.28,252.45,382.19,249.77,383.22Z" transform="translate(-61.77 -206.33)"/><path class="cls-4" d="M234.51,363.56c.12-2.19-.07-4.35,0-6.55a10.54,10.54,0,0,0,0-2.37.33.33,0,0,0-.05-.12l0-.08a4.6,4.6,0,0,0-.06-2.29c-.44-2.42-4.13-1.77-3.76.66a6.46,6.46,0,0,0,.44,1.78c.65,1.37-.45-.72.17.58.14.28.32.84.23.3a8.45,8.45,0,0,0,.29,1.21,33.59,33.59,0,0,1,.82,3.91,25.84,25.84,0,0,1,.55,3C233.13,364.43,234.46,364.35,234.51,363.56Z" transform="translate(-61.77 -206.33)"/><path class="cls-4" d="M209.27,402.5c-.78.83-1.67,1.51-2.42,2.37-1.27,1.45-2.3,3.11-3.71,4.45a19.34,19.34,0,0,0-4.71,6c-1.14,2.37,2.22,4.47,4.05,2.84s2.33-4.11,3.28-6.13c1.4-3,3.33-5.65,4.79-8.58C210.93,402.69,209.82,401.91,209.27,402.5Z" transform="translate(-61.77 -206.33)"/><path class="cls-4" d="M231.77,370.19c-1.94,1.64-3.6,3.55-5.45,5.31-2.62,2.49-6.58,2.93-9.3,5.44-4.72,4.35-3.9,11.89-5.77,17.42a1,1,0,0,0,1.93.71c2.8-7.35,1-14.86,9.29-19.19a31.54,31.54,0,0,0,10.39-8.7C233.42,370.52,232.4,369.66,231.77,370.19Z" transform="translate(-61.77 -206.33)"/><path class="cls-4" d="M251.06,355.37a4.41,4.41,0,0,0-1.58.27c-.63.18-1.29-.06-1.9.12-1.19.34-1.6,1.23-2.56,1.89a1,1,0,0,0,.08,1.62l.1.08a.86.86,0,0,0,1,0c-.63.48.67,0,.89-.13.91-.46,1.44-.16,2.36-.29,1.81-.26,3.47.93,5.32.93.82,0,1.75-.68,1.49-1.62C255.71,356,253.07,355.58,251.06,355.37Z" transform="translate(-61.77 -206.33)"/><path class="cls-4" d="M235.8,402.13a.7.7,0,0,0-1.37.05,16.49,16.49,0,0,0-.13,5.34c.31,1.65-.46,3.37.77,4.76a1.22,1.22,0,0,0,1.92-.09c.75-1.41.19-2.93-.12-4.44C236.48,405.89,236.07,404,235.8,402.13Z" transform="translate(-61.77 -206.33)"/><path class="cls-3" d="M280.33,340.14h-.21c-1.72.11-3.51.24-5.41.37-5.37.39-11.46.83-17.41.83h-1.65c-7.74-.11-13.82-1-18.52-2.82,3.66-9.84,11.7-18.16,20.17-26.92,12-12.47,24.5-25.36,24.5-43.69,0-8.66-4.64-16.38-13.06-21.73a48.78,48.78,0,0,0-25.54-7.07c-6.73,0-12.71,1.39-17.3,4a23.32,23.32,0,0,0-8.18,7.47,20.08,20.08,0,0,0-3.05,12.56,35.73,35.73,0,0,0,3.55,12.6,4.38,4.38,0,0,0,4,2.66c3.24,0,5.78-3.3,10-9.12a52.64,52.64,0,0,1,3.41-4.43,24,24,0,0,1,6.27-.77,31.55,31.55,0,0,1,4,.26c.93.12,1.85.27,2.84.46l10.53,5.76c2.9,6.35-5.31,18.14-11.85,26.59-5.45,7-11.34,13.76-17,20.26-4.27,4.88-8.7,9.93-13,15.16-5.45,6.65-7.28,12.73-5.43,18.06,2.82,8.13,14.21,13,30.45,13a72.8,72.8,0,0,0,25.89-4.56c8.95-3.56,14.24-8.73,15.31-14.95a3.39,3.39,0,0,0-3.34-4Z" transform="translate(-61.77 -206.33)"/><path class="cls-6" d="M233.92,340.84l.38.17Z" transform="translate(-61.77 -206.33)"/><path class="cls-5" d="M251.45,246.77c10.17,3.39,18.64,10.17,20.34,22,1.69,30.5-35.59,42.37-39,69.48a1.89,1.89,0,0,0,.23,1.84c7.66-26.73,45.37-41.89,45.37-72.21,0-22.37-35-30.92-50.83-21.85a19.82,19.82,0,0,0-7,6.37C229.94,247.29,240.24,244.28,251.45,246.77Z" transform="translate(-61.77 -206.33)"/><path class="cls-6" d="M258.23,351.84c2.11-3.16.28-5.67-2.62-7.11-7.7-.11-15.25-1-21.31-3.71l-.38-.17c-.32-.15-.66-.28-1-.44,0-.1.06-.19.09-.29a1.89,1.89,0,0,1-.23-1.84c3.39-27.12,40.67-39,39-69.48-1.69-11.86-10.17-18.64-20.34-22-11.21-2.49-21.51.52-30.89,5.65-4.12,6.37-2.83,14.3.72,21.88,2,4.24,10.49-11.85,12.94-12.58a30.14,30.14,0,0,1,12.14-.74c27.06,3.46,16.53,21.77,3.77,38.25-9.58,12.37-20.08,23.3-30.07,35.49-5,6.06-6.18,11-4.85,14.8C227.49,360.71,247.23,362.84,258.23,351.84Z" transform="translate(-61.77 -206.33)"/><path class="cls-5" d="M255.61,344.73c2.91,1.44,4.73,3.95,2.62,7.11-11,11-30.74,8.87-43-2.32,5.9,17,61.88,12.87,65.12-6C273.19,344,264.31,344.85,255.61,344.73Z" transform="translate(-61.77 -206.33)"/><path class="cls-7" d="M225.28,265.76c.85-1.78,1.61-3.6,2.43-5.39s1.6-3.6,1.11-5.52l-1.26,2.44a2.6,2.6,0,0,1,.47-.2l-1.59.07c1.3.37,2.12-.17,3.42-.17a1.2,1.2,0,0,0,.79-2.16,20.37,20.37,0,0,0-3.29-1.71,2.25,2.25,0,0,0-2.64.82c-1.12,1.62-1.16,3.54-1.29,5.45a39.69,39.69,0,0,0-.11,6.19c.1,1.09,1.55,1,1.93.17Z" transform="translate(-61.77 -206.33)"/><path class="cls-7" d="M237.25,255.56c11.84.34,27.66.25,29.07,15.66.12,1.26,2,.88,1.9-.33-.39-7.41-3.19-13.61-10-16.94-6.39-3.1-14.38-1.17-21-.14a.89.89,0,0,0,.07,1.76Z" transform="translate(-61.77 -206.33)"/><path class="cls-7" d="M225.71,332.31c-1.66,3.84-5.59,6.18-7.25,10-2.11,4.8,1.28,8.94,6.29,8.54,1.93-.15,2.42-2.6,1.41-3.91-3.49-4.55.22-9.32,1.31-13.94a.94.94,0,0,0-1.76-.65Z" transform="translate(-61.77 -206.33)"/></g><g id="guy3"><path class="cls-1" d="M373.13,252.48l-2.26,1.91a.71.71,0,0,1-1.14-.33l-.42-1.29c-.39.74-.95,1.67-1.71,2.92-1.26,2.08-3.89,6.4-3.8,7.57a2.88,2.88,0,0,0,1.3,2c.87.64,2.6,1.42,5.8,1.44,0-.09.08-.16.12-.25C372.3,261.35,374.72,257.38,373.13,252.48Z" transform="translate(-61.77 -206.33)"/><path class="cls-2" d="M374.39,249.57c-.07.57-.15,1.16-.23,1.79a.72.72,0,0,1-.25.45l-.79.67c1.59,4.89-.83,8.87-2.11,14,0,.09-.08.16-.12.25a29.72,29.72,0,0,0,6.23-.69c-.76-7.11-1.72-14.58-2.18-16.17Z" transform="translate(-61.77 -206.33)"/><path class="cls-2" d="M379.73,239.07a15,15,0,0,1-1.59,1.27c.81,1.26,3.29,5.36,3.59,8.62.27,2.86,1.26,10.25,1.6,12.7,1.79.66,6.5,2,8.45-.84C387.78,253.32,381.71,242.18,379.73,239.07Z" transform="translate(-61.77 -206.33)"/><path class="cls-1" d="M383.85,232.27c8.39.93,13.12-5.45,13.8-12.78a12.29,12.29,0,0,0-9.16-6.77,12.12,12.12,0,0,0-13.95,9.92,11.76,11.76,0,0,0,1,6.89C377.54,231.63,381,232.27,383.85,232.27Z" transform="translate(-61.77 -206.33)"/><path class="cls-2" d="M397.64,219.49c-.67,7.32-5.4,13.71-13.8,12.78-2.85,0-6.31-.64-8.32-2.74a12,12,0,0,0,1.15,1.93,12.41,12.41,0,0,0,17.25,2.74,11.77,11.77,0,0,0,3.72-14.71Z" transform="translate(-61.77 -206.33)"/><path class="cls-2" d="M376.71,237.89l.46-.35-.17-.37A4.64,4.64,0,0,1,376.71,237.89Z" transform="translate(-61.77 -206.33)"/><path class="cls-2" d="M377.27,236.15a6.76,6.76,0,0,1-.27,1l.17.37a6.8,6.8,0,0,0,.91-.81C377.81,236.54,377.54,236.35,377.27,236.15Z" transform="translate(-61.77 -206.33)"/><path class="cls-1" d="M370.33,244.71l0-.1-.13.06Z" transform="translate(-61.77 -206.33)"/><path class="cls-2" d="M343.65,230.56a14,14,0,0,0,3.53,2.37c3.55-1.95,12.49-6.69,15.27-6.59a1.45,1.45,0,0,1,.68.2l4.68,2.78C365.38,220.31,350.76,228.54,343.65,230.56Z" transform="translate(-61.77 -206.33)"/><path class="cls-1" d="M372.34,229.26a1.28,1.28,0,0,1-.28-.2,48.15,48.15,0,0,0-9.27-7.56c-7.39-1.09-17.44,1.17-19.73,1.72a5.39,5.39,0,0,0-1.15,4.63,6.14,6.14,0,0,0,1.75,2.7c7.12-2,21.74-10.25,24.16-1.23l1.26.75a1.43,1.43,0,1,1-1.46,2.45l-.69-.41c-1.39,1-10.52,7.53-12.7,12.67a1.43,1.43,0,0,1-.32.47L347,251.95a1.43,1.43,0,0,1-.41.28c-.15.06-14.64,6.6-17.17,13.46-.87,2.36.5,4.07,1.81,5.09a9.43,9.43,0,0,0,1.64,1c8.86-4.14,16.59-14,22.42-21,4-6.73,9.36-16,19.55-17-.18-.21-.36-.43-.53-.66A14.82,14.82,0,0,1,372.34,229.26Z" transform="translate(-61.77 -206.33)"/><path class="cls-2" d="M374.89,233.79c-10.19,1-15.51,10.27-19.55,17-5.83,7-13.56,16.84-22.42,21,3.52,1.72,8.81,2,12.49-.33,1.43-3.06,10.54-22.15,16-26.8a1.43,1.43,0,0,1,1.84,2.18,16.51,16.51,0,0,0-2.29,2.54c2.93.31,5.95.44,6.73.13a1.75,1.75,0,0,1,.79-.11l.78-2-2.91-1.14a1.72,1.72,0,0,1,0-3h0c1.81-.75,3.72-1.64,5.49-2.55l.75-1.93-.18-.31a.7.7,0,0,1-.07-.16c-.07-.24-.64-2.36.22-3.53A2.66,2.66,0,0,1,375,234Z" transform="translate(-61.77 -206.33)"/><path class="cls-3" d="M347.81,273c.08-.17,6.1-13.1,11.31-21a52.12,52.12,0,0,0,7.07.49l-1,1.71c-2.56,4.21-4.36,7.34-4.21,9.27a5.66,5.66,0,0,0,2.46,4.11c2.18,1.59,6.65,3.05,15.58,1A1.43,1.43,0,0,0,380.1,267c-1.87-17.87-2.59-18.65-2.95-19a9.69,9.69,0,0,0-2.39-1.38c.22-1.86.37-3.31.48-4.45l.5-.29c1,1.49,2.94,5,3.16,7.36.32,3.5,1.67,13.23,1.73,13.64a1.43,1.43,0,0,0,.82,1.1c3.46,1.58,10.68,3.08,13.27-2.52a1.42,1.42,0,0,0,0-1.27c-1.59-3-8.37-15.67-11.71-21.27.44.11.88.21,1.33.28a15.09,15.09,0,0,0,11.31-2.69,14.6,14.6,0,0,0,5.9-9.59,15.08,15.08,0,0,0-29.78-4.72,14.59,14.59,0,0,0-.17,2.4,48.16,48.16,0,0,0-7.58-5.7,1.46,1.46,0,0,0-.49-.17c-9-1.42-21.13,1.74-21.65,1.88a1.43,1.43,0,0,0-.77.51c-1.95,2.56-2.59,5.09-1.9,7.53,1.34,4.74,7.32,7.12,7.57,7.21a1.44,1.44,0,0,0,1.21-.08c5.46-3,12.14-6.25,14.11-6.55l2.21,1.31c-3,2.16-10.18,7.82-12.5,12.85l-6.52,6.35c-2,.93-15.66,7.42-18.45,15-1.13,3.06-.13,6.1,2.74,8.33,4.23,3.28,12.23,4.43,17.8.57A1.45,1.45,0,0,0,347.81,273Zm28.9-35.14a5.85,5.85,0,0,0,.57-1.74c.26.2.53.39.81.58A8,8,0,0,1,376.71,237.89Zm-6.38,6.82-.09,0,.13-.06Zm4.62,5.15c.46,1.59,1.42,9.06,2.18,16.17-7.42,1.53-10.71.21-12-.75a2.88,2.88,0,0,1-1.3-2c-.09-1.16,2.54-5.49,3.8-7.57.76-1.25,1.31-2.17,1.71-2.92l.42,1.29a.71.71,0,0,0,1.14.33l3-2.58a.72.72,0,0,0,.25-.45c.08-.63.16-1.21.23-1.79Zm8.38,11.8c-.33-2.45-1.33-9.84-1.6-12.7-.3-3.27-2.77-7.36-3.59-8.62a15,15,0,0,0,1.59-1.27c2,3.1,8,14.24,12.05,21.75C389.84,263.7,385.13,262.33,383.33,261.66Zm-8.8-39a12.23,12.23,0,0,1,24.15,3.83,11.79,11.79,0,0,1-4.76,7.73,12.41,12.41,0,0,1-17.25-2.74A11.78,11.78,0,0,1,374.53,222.64Zm-43.26,48.14c-1.31-1-2.69-2.72-1.81-5.09,2.53-6.86,17-13.4,17.17-13.46a1.43,1.43,0,0,0,.41-.28l6.87-6.69a1.43,1.43,0,0,0,.32-.47c2.17-5.14,11.3-11.7,12.7-12.67l.69.41a1.43,1.43,0,1,0,1.46-2.45l-5.95-3.54a1.45,1.45,0,0,0-.68-.2c-2.78-.1-11.72,4.64-15.27,6.59-1.33-.63-4.53-2.4-5.28-5.08a5.39,5.39,0,0,1,1.15-4.63c2.29-.55,12.34-2.81,19.73-1.72a48.15,48.15,0,0,1,9.27,7.56,1.28,1.28,0,0,0,.28.2,14.82,14.82,0,0,0,2,3.88c.21.3.45.58.68.86a2.66,2.66,0,0,0-2.44.77c-.86,1.18-.29,3.3-.22,3.53a.7.7,0,0,0,.07.16l.18.31-.75,1.93c-1.76.9-3.68,1.79-5.49,2.55h0a1.72,1.72,0,0,0,0,3l2.91,1.14-.78,2a1.75,1.75,0,0,0-.79.11c-.78.31-3.8.18-6.73-.13a16.51,16.51,0,0,1,2.29-2.54,1.43,1.43,0,0,0-1.84-2.18c-5.5,4.65-14.61,23.74-16,26.8C341.1,274.19,334.57,273.33,331.27,270.78Z" transform="translate(-61.77 -206.33)"/><path class="cls-4" d="M353.85,224.36c.37-.15.77-.55,1.08-.65.62-.19.89-1.15.12-1.39a9.61,9.61,0,0,0-3.86.11c-1.2.16-2.38.43-3.58.62s-2,.93-3,1.24c-1.7.5-1.34,3.15.49,2.79a7.8,7.8,0,0,0,2.19-1,17.88,17.88,0,0,1,3.73-1A26,26,0,0,0,353.85,224.36Z" transform="translate(-61.77 -206.33)"/><path class="cls-4" d="M390.66,216.15c-1.31-4.71-8-2.34-10.53-.06-3.11,2.77-5.65,7-4.08,11.14.31.83,1.45.33,1.39-.44-.24-3,2.54-5.52,4.62-7.21a6.81,6.81,0,0,1,4.4-1.71c1.43,0,2,.54,3.36-.12A1.48,1.48,0,0,0,390.66,216.15Z" transform="translate(-61.77 -206.33)"/><path class="cls-4" d="M344.29,254.27c-3.59,2.52-7.11,5-10.57,7.71-2.4,1.88-5.58,5.73-1.54,7.82a2,2,0,0,0,2.37-.74,2.46,2.46,0,0,0,.62-1.39c-.08.79.55-.53.75-.77a25.59,25.59,0,0,0,2.4-4.24,23.57,23.57,0,0,1,3.34-4.09c1.1-1.22,2.52-1.91,3.7-3.06A.83.83,0,0,0,344.29,254.27Z" transform="translate(-61.77 -206.33)"/><path class="cls-4" d="M351.53,251c2.76-1.88,4.63-4.3,6.67-6.86,2.18-2.73,4.91-5.1,7.3-7.67a.84.84,0,0,0-1.08-1.27c-2.13,1.69-5.6,3.79-6.95,6.25a25.82,25.82,0,0,1-6.88,8.45C349.84,250.46,350.77,251.51,351.53,251Z" transform="translate(-61.77 -206.33)"/><path class="cls-4" d="M365.42,261.24a2.53,2.53,0,0,0,.24,2.43,2.3,2.3,0,0,0,2.19.82,1.25,1.25,0,0,0,1-1.43,2.12,2.12,0,0,0-.79-1.23,1.28,1.28,0,0,0-.25-.16l0-.22a.72.72,0,0,0-.05-.17,4,4,0,0,0,.1-.59,5.66,5.66,0,0,1,.6-1.63.74.74,0,0,0-1.2-.84,5.67,5.67,0,0,0-1.22,1.85l-.13.3A1.76,1.76,0,0,0,365.42,261.24Z" transform="translate(-61.77 -206.33)"/><path class="cls-3" d="M382,329.54a49.57,49.57,0,0,1-6.47-3.45c-3.46-2.42-5.41-4-5.79-4.75a20.7,20.7,0,0,1,2.17-3.49,83.67,83.67,0,0,0,5.52-8.84c.94-1.32,2-2.79,3.19-4.35,7.94-10.69,17.82-24,14.64-33.68-1.28-3.89-4.41-6.63-9.32-8.13a35.73,35.73,0,0,0-9.2-1.38c-1.32,0-2.64-.07-3.93-.07-9.91,0-17.69,1.42-23.79,4.36a24.93,24.93,0,0,0-14.4,18.77,5,5,0,0,0,1,4.31,5.87,5.87,0,0,0,4.77,1.9c2.39,0,5.49-.76,9.72-2l2.66-.78c5.33-1.58,11.38-3.37,15.4-3.37,2.11,0,2.67.49,2.76.59a2.6,2.6,0,0,1,.24,1.75,18.13,18.13,0,0,1-1.43,5.06c-1.33,3.21-5.75,8.2-10,13-8.58,9.66-17.45,19.65-14.3,27.72,1.07,4,3.89,6.89,8.37,8.7A49.51,49.51,0,0,0,365,344a47.36,47.36,0,0,1,6.62,1.24c1.75.54,2,1,2,1s.39,1.18-2.19,5c-9.65,9.29-22.43,16.39-34.8,23.25l-5.19,2.89-.67.38-1.41.8a3.39,3.39,0,0,0-1.5,4.12c1.81,4.9,6,7.6,11.92,7.6,10.89,0,26-9,34-14.35,9.46-6.33,20.73-15.47,23.1-20.55,3.14-6.74,2.54-12.6-1.78-17.41C391.68,334.17,386.52,331.71,382,329.54Z" transform="translate(-61.77 -206.33)"/><path class="cls-5" d="M372.1,279.19c-5.87-5.87-16.83-1.56-23,6.31,11.11-3.22,26.3-8.58,25.38,1.74C375.61,284.5,375.19,281.77,372.1,279.19Z" transform="translate(-61.77 -206.33)"/><path class="cls-6" d="M387.35,279.19a13.53,13.53,0,0,0-2.42-13.09,32.46,32.46,0,0,0-8.32-1.23c-17.36-.61-35.37,2.59-38.67,20.29-.64,3.45,4.54,2.28,11.2.35,6.13-7.87,17.09-12.19,23-6.31,3.09,2.58,3.51,5.31,2.42,8a21.15,21.15,0,0,1-1.67,6.05c-4.1,9.93-28.41,28.53-24.26,38.38,3.74,15,38.75,2.53,25.46,21.76-11.39,11.07-27,19.07-40.93,26.91,19.07,2.56,39.82-14.27,49.15-28.27,8.47-13.56-11.86-15.25-18.64-23.73a10.81,10.81,0,0,1,0-10.17C370.4,304.61,384,292.75,387.35,279.19Z" transform="translate(-61.77 -206.33)"/><path class="cls-5" d="M373.56,328.87c-12.35-8.61-6.8-7.07,1-21.65,8.56-12,28.92-35.47,10.41-41.13a13.53,13.53,0,0,1,2.42,13.09c-3.39,13.56-16.95,25.42-23.73,39a10.81,10.81,0,0,0,0,10.17c6.78,8.47,27.12,10.17,18.64,23.73-9.33,14-30.08,30.84-49.15,28.27l-2.06,1.16c7.12,19.26,58.56-18.6,62.73-27.56C401.22,338,381.59,334.47,373.56,328.87Z" transform="translate(-61.77 -206.33)"/><path class="cls-7" d="M353.43,374.11c4.35-1.52,8.63-2.91,12.56-5.37,1.37-.86.91-3.44-.94-3-4.65,1.23-8.47,3.84-12.7,6.05a1.26,1.26,0,0,0,1.08,2.27Z" transform="translate(-61.77 -206.33)"/><path class="cls-7" d="M356.31,329a29.19,29.19,0,0,1,1.67-5.9c.58-1.36-1.27-2.06-2.12-1.11a8.48,8.48,0,0,0-1.86,7.11,1.17,1.17,0,0,0,2.31-.09Z" transform="translate(-61.77 -206.33)"/><path class="cls-7" d="M345.53,281.48c1.5-.52,2.57-2,3.58-3.18a33.15,33.15,0,0,0,3.4-4.4c.76-1.24-.52-3.25-2-2.37-2.79,1.67-8.52,5.33-6.69,9.34a1.31,1.31,0,0,0,1.71.61Z" transform="translate(-61.77 -206.33)"/></g><g id="guy4"><path class="cls-2" d="M445.65,379.37c-4.31,6.47-10.26,20.28-17.84,21.06a16.42,16.42,0,0,0,4.28,1.18c2.35.3,6.68.29,9.3-3.19,3.6-4.77,7-17.58,7-17.71a1.41,1.41,0,0,1,.34-.62l.65-.69C448.07,378.72,446.56,378.46,445.65,379.37Z" transform="translate(-61.77 -206.33)"/><path class="cls-1" d="M466.59,375.79l.52,16.66a22.25,22.25,0,0,0,5.59,1.62,86.35,86.35,0,0,0-2.83-19A5.83,5.83,0,0,0,466.59,375.79Z" transform="translate(-61.77 -206.33)"/><path class="cls-2" d="M476.33,377.21a.72.72,0,0,1-.65-.4L472.84,371h0l-7.66-1.37a1.35,1.35,0,0,1-.4-.16l-1.24.6a1.43,1.43,0,0,1-1.24-2.57c2.94-1.42,10.91-5.33,12.43-6.42a1.41,1.41,0,0,1,.44-.2,2.92,2.92,0,0,1-.93-.7,3.14,3.14,0,0,1-.74-1.89,8.6,8.6,0,0,0-1.65-.15h.08a1.43,1.43,0,0,1-1.73-1,1.29,1.29,0,0,1,0-.33c-8.44,5.63-13.77,13.3-20.26,19.79,0,1.21,0,1.39.87,1.42l7.74-8.2h0a1.43,1.43,0,0,1,2.07,2l-.32.34,5.39,2.11a1.43,1.43,0,0,1,.9,1.28v.35a5.83,5.83,0,0,1,3.29-.69,86.35,86.35,0,0,1,2.83,19c4.44.61,6.57-1,7.23-1.73a45.45,45.45,0,0,0-3-15.5A.71.71,0,0,1,476.33,377.21Z" transform="translate(-61.77 -206.33)"/><path class="cls-1" d="M505.25,351.91c-2.47-.76-21.75-.19-33.32.34a1.43,1.43,0,0,1-1.49-1.36,1.41,1.41,0,0,1,.67-1.25l-.11-.21-2.78,2-.21.12c-9.25,4.5-15.8,16.1-15.87,16.22a1.44,1.44,0,0,1-.24.31l-8.38,8.4a1.43,1.43,0,0,1-.61.36C431,380.29,423.13,392.37,423,392.6a3.13,3.13,0,0,0-.51,3.33c.73,1.77,2.78,3.41,5.35,4.51,7.58-.79,13.52-14.59,17.84-21.06.92-.91,2.42-.65,3.76,0l1.38-1.47c-.86,0-.87-.21-.87-1.42,6.5-6.5,11.82-14.17,20.26-19.79a1.41,1.41,0,0,1,1.05-1.4h.07v-.18c11.24-1.4,22.49,6.88,35.09,1.65a10.32,10.32,0,0,0,.1-1.27C506.51,353.41,505.88,352.11,505.25,351.91Z" transform="translate(-61.77 -206.33)"/><path class="cls-2" d="M471.3,355.14v.18a4.6,4.6,0,0,1,1.14,0l.29-.18-.29.18c5.1.39,22.74,4.58,31.14,6.62,1.52-.66,2.52-2.89,2.81-5.14C493.79,362,482.55,353.73,471.3,355.14Z" transform="translate(-61.77 -206.33)"/><path class="cls-1" d="M491.7,334.62l0,0a11.42,11.42,0,0,0-17.39,14.69c2-.08,4.81-.2,8-.3C488.35,346.9,492.85,341.46,491.7,334.62Z" transform="translate(-61.77 -206.33)"/><path class="cls-2" d="M495,342.71a11.4,11.4,0,0,0-3.33-8.08c1.16,6.84-3.34,12.27-9.4,14.37,3.48-.12,7.37-.22,11-.27A11.38,11.38,0,0,0,495,342.71Z" transform="translate(-61.77 -206.33)"/><path class="cls-3" d="M506.09,349.19a16.4,16.4,0,0,0-3.25-.38,17.37,17.37,0,0,0-1.13-5.73,1.43,1.43,0,0,0-1.42-1l-2.44.12a14.27,14.27,0,0,0-28.53.46,14.38,14.38,0,0,0,.58,4l-3.27,2.34c-9.49,4.7-16,15.63-16.86,17.14l-8,8C429,378.12,421,390.42,420.65,391a5.92,5.92,0,0,0-.83,6.06c1.49,3.61,6.5,6.73,11.9,7.43,5,.65,9.39-.92,11.94-4.29,3.64-4.82,6.83-16.2,7.41-18.35l7.11-7.53,0,0,5.55,2.18.53,17a1.42,1.42,0,0,0,.84,1.25c12.69,5.76,17.23-.79,17.42-1.07a1.41,1.41,0,0,0,.24-.75c.24-8.63-3-16.89-4.19-19.61l1.21-2.62a.71.71,0,0,0,.05-.44l-1.81-9.14a2.6,2.6,0,0,0,1.61-1,2.27,2.27,0,0,0,.28-.59c6.26,1.3,15.17,3.35,23.43,5.36a1.42,1.42,0,0,0,.74,0c3.56-1.05,5.21-5.54,5.23-9.27C509.37,352.2,508.15,349.82,506.09,349.19Zm-9.53-.49a14.28,14.28,0,0,0,1.1-3.58l1.68-.08a13.45,13.45,0,0,1,.67,3.69C498.94,348.7,497.78,348.69,496.55,348.7Zm-13-17.45a11.43,11.43,0,0,1,9.7,17.47c-7,.09-14.91.4-19,.57a11.33,11.33,0,0,1-2.12-6.59A11.45,11.45,0,0,1,483.6,331.25Zm-10.08,36.94-4.55-.81c2.06-1,4.26-2.16,5.8-3l-1.23,3.85Zm30.07-6.26c-9.33-2.27-30.06-7.18-32.35-6.61a1.43,1.43,0,0,0,.69,2.77h-.08a8.6,8.6,0,0,1,1.65.15,3.14,3.14,0,0,0,.74,1.89,2.92,2.92,0,0,0,.93.7,1.41,1.41,0,0,0-.44.2c-1.52,1.09-9.49,5-12.43,6.42a1.43,1.43,0,0,0,1.24,2.57l1.24-.6a1.35,1.35,0,0,0,.4.16l7.66,1.37h0l2.84,5.84a.7.7,0,0,0,1.26,0,45.45,45.45,0,0,1,3,15.5c-.89.93-4.45,3.64-12.82.11l-.53-17a1.43,1.43,0,0,0-.9-1.28L460.29,372l.32-.34a1.43,1.43,0,0,0-2.07-2h0l-9.78,10.36a1.41,1.41,0,0,0-.34.62c0,.13-3.42,12.94-7,17.71-2.62,3.47-7,3.49-9.3,3.19-4.38-.56-8.52-3-9.62-5.69a3.13,3.13,0,0,1,.51-3.33c.15-.22,8.05-12.3,19.94-15.75a1.43,1.43,0,0,0,.61-.36l8.38-8.4a1.44,1.44,0,0,0,.24-.31c.06-.12,6.61-11.71,15.87-16.22l.21-.12,2.78-2,.11.21a1.41,1.41,0,0,0-.67,1.25,1.43,1.43,0,0,0,1.49,1.36c11.57-.53,30.85-1.1,33.32-.34.63.2,1.26,1.5,1.25,3.6C506.48,358.14,505.39,361.14,503.58,361.93Z" transform="translate(-61.77 -206.33)"/><path class="cls-4" d="M428.23,396.69c2.53-1.67,4-5.28,5.91-7.63,2.6-3.25,5.45-6.34,8.35-9.32a.76.76,0,0,0-.82-1.26c-3.41,1.62-6.73,4.75-9.53,7.27-2.49,2.23-5.91,5.58-7.09,8.72l.08,0A2,2,0,0,0,428.23,396.69Z" transform="translate(-61.77 -206.33)"/><path class="cls-4" d="M446.41,376.6c4.41-3.66,7.9-7.69,11.81-11.82a67.93,67.93,0,0,1,5.83-5.9c1.72-1.43,3.79-2.7,5-4.59a1.23,1.23,0,0,0-1.53-1.81c-4.09,1.67-8,5.8-10.52,9.39-1.93,2.77-3.6,5.76-6.05,8.09a49.72,49.72,0,0,0-5.64,5.63C444.77,376.28,445.76,377.14,446.41,376.6Z" transform="translate(-61.77 -206.33)"/><path class="cls-4" d="M504.09,353.85c-3.41-1.49-7.72-1.14-11.35-1-4,.19-8.09-.05-12.13.13-.85,0-.77,1.44.06,1.48,3.55.16,7.1.52,10.62,1s8.22.1,11.6,1.6C504.93,358,506.12,354.74,504.09,353.85Z" transform="translate(-61.77 -206.33)"/><path class="cls-4" d="M475.07,341.15c1.11-1.24,1.91-2.63,3.36-3.56a8.51,8.51,0,0,1,4.84-1c2.83.24,3.2-4.29.41-4.34-4.38-.07-9.82,3.74-9.95,8.44A.74.74,0,0,0,475.07,341.15Z" transform="translate(-61.77 -206.33)"/><path class="cls-4" d="M467.78,377c-.26,4.34-.16,8.8,0,13.15,0,1.31,2,1.58,2.08.2.17-4.49-.36-8.94-.63-13.4C469.18,376.16,467.83,376.24,467.78,377Z" transform="translate(-61.77 -206.33)"/><path class="cls-3" d="M568.47,341.09a42.93,42.93,0,0,0-8.76,1.56l-1.23.3.65-3c1.42-6.5,3.35-15.4,4.36-23.42,1.34-10.65.73-16.89-2-20.23a6.81,6.81,0,0,0-5.46-2.62h0a11.07,11.07,0,0,0-5.18,1.49,24.93,24.93,0,0,0-2.94,1.87c-3.18,2.33-5.25,6.1-6.33,11.52a86.28,86.28,0,0,0-1.15,13.72c-.16,5.17-.32,10-1.41,13.25a32.67,32.67,0,0,0-1.5,7.64,11.14,11.14,0,0,1-.56,3.14,4.64,4.64,0,0,1-2.28.33,27,27,0,0,1-3-.21l-.39,0a3.28,3.28,0,0,0-.44,0,9.06,9.06,0,0,1-1.12.06,35.26,35.26,0,0,1-10.25-2,12,12,0,0,1-3.09-1.46s-1.51-1.73.54-10.74A158.05,158.05,0,0,1,522,315.82c.42-1.18.74-2.1,1-2.82,3-9.07,6.29-18.68,9.5-28l.42-1.21h0c1.81-5.25,4.32-14.81.76-19.79a6.55,6.55,0,0,0-5.47-2.81,10.83,10.83,0,0,0-5,1.43c-2.95,1.56-6.37,4.49-10.17,8.71a3.15,3.15,0,0,0-.35.45c-8,12.63-10.73,38.53-12.54,55.66-.09.91-.19,1.8-.28,2.65-1.46,13.71-.41,22.51,3.41,28.53a18.38,18.38,0,0,0,8.76,7.22,34.07,34.07,0,0,0,13,2.13,82.43,82.43,0,0,0,10.41-.74c1.7,2.76.81,10.51.09,16.76-.77,6.72-1.57,13.67-.24,18.75a3.39,3.39,0,0,0,4.42,2.33,16.26,16.26,0,0,0,9.79-9.18c2-4.53,2.3-9.82,2.62-14.94.25-4,.5-7.74,1.46-10.81,2.28-7.3,3.69-8.15,7.44-10.43l.19-.12a53.56,53.56,0,0,0,8.09-5.84,3,3,0,0,0,.28-.27c3.38-3.7,5.36-6.76,4.09-9.64C573.12,342.83,571.85,341.09,568.47,341.09Z" transform="translate(-61.77 -206.33)"/><path class="cls-5" d="M510.91,346.23c2,2,4.62,2.15,7.41,1.48a15.79,15.79,0,0,1-4-2c-5.82-4.41,3.53-28.08,5.41-33.81,3.11-9.48,6.55-19.43,9.93-29.25,4.28-12.43,2.86-21.2-4.94-17.07,7.7,21.67-13.87,38.48-18.9,60.26C504.13,334.37,505.82,342.84,510.91,346.23Z" transform="translate(-61.77 -206.33)"/><path class="cls-5" d="M506.07,356.82c4.63,7.3,14.16,9.15,30.39,6.86a5,5,0,0,1,1.56,1.49V356.4C527,358.85,514.24,362.17,506.07,356.82Z" transform="translate(-61.77 -206.33)"/><path class="cls-5" d="M546.5,363.18c-4.26,9.94,1,21.06-.2,31.39,3.17-7.32,1.58-17.83,4-25.41,2.71-8.65,4.93-9.89,9.12-12.43C553.2,356.57,547.55,357.9,546.5,363.18Z" transform="translate(-61.77 -206.33)"/><path class="cls-6" d="M555.52,347.07a10.62,10.62,0,0,0,4.53.86,10.62,10.62,0,0,1-4.53-.86l-1.35.24c0-.28.09-.6.15-1-9.19-7,7.84-35.72-1.05-47.58a3.57,3.57,0,0,0-.82-.61,20.93,20.93,0,0,0-2.53,1.61c-8.79,6.44-4.32,27-7.69,36.85-3.06,8.94,1.56,14.63-11,13.16-3,.41-8.75-.59-12.94-2.08-2.79.68-5.37.56-7.41-1.48-5.08-3.39-6.78-11.86-5.08-20.34,5-21.78,26.6-38.6,18.9-60.26-2.45,1.3-5.52,3.85-9.24,8-8,12.62-10.56,40.37-12.31,56.85-1.3,12.27-.59,20.86,2.9,26.35,8.17,5.35,20.94,2,32-.42v8.77c4.68,6.72-2.13,26.86.45,36.73a12.81,12.81,0,0,0,7.83-7.34c1.17-10.33-4.06-21.45.2-31.39,1.06-5.27,6.71-6.61,12.87-6.45a50.17,50.17,0,0,0,7.63-5.49C576.78,340.5,564.33,345.35,555.52,347.07Z" transform="translate(-61.77 -206.33)"/><path class="cls-5" d="M554.33,346.36c2-11.13,14.52-56.89-1.87-48.19a3.57,3.57,0,0,1,.82.61C562.17,310.64,545.14,339.34,554.33,346.36Z" transform="translate(-61.77 -206.33)"/><path class="cls-7" d="M514.7,289c1.52-4,3.58-7.89,5.46-11.73.65-1.32-1.25-2.5-2.27-1.59-3.69,3.31-4.24,8.2-5.19,12.86-.24,1.18,1.59,1.52,2,.46Z" transform="translate(-61.77 -206.33)"/><path class="cls-7" d="M513,353.7a3.47,3.47,0,0,1-1.81-1.22c.33.39-.26-.42-.35-.54l-.4-.52a2.13,2.13,0,0,0-.72-.66q.29.2-.3-.28c-.51-.26-.58-.3-.19-.12-.69-.71-2.24-.73-2.52.45a3.7,3.7,0,0,0-.05,2.54q-.23-.44.11.45l.43.67a3.24,3.24,0,0,0,1.37,1.09,10,10,0,0,0,2.06.5,6.46,6.46,0,0,0,2.18-.28c1-.22,1.29-1.76.19-2.06Z" transform="translate(-61.77 -206.33)"/><path class="cls-7" d="M549.17,320c1.73-3.69,3.14-7.76,2.66-11.9-.17-1.46-2.19-1.45-2.7-.24-1.55,3.67-1.29,7.83-2,11.69-.22,1.24,1.55,1.47,2,.46Z" transform="translate(-61.77 -206.33)"/><path class="cls-2" d="M499.34,345l-1.68.08a14.28,14.28,0,0,1-1.1,3.58c1.22,0,2.38,0,3.46,0A13.45,13.45,0,0,0,499.34,345Z" transform="translate(-61.77 -206.33)"/></g><g id="guy5"><path class="cls-2" d="M659.05,259.27v0c-2,5.25-3.9,10.45-7.13,16.09,0,.82-1.41,3-3.43,4,3.37.44,7.67-.8,8.95-2.83,2.16-3.46,2.08-13.51,1.83-17.82Z" transform="translate(-61.77 -206.33)"/><path class="cls-1" d="M661.21,254c.22-.5.43-1,.66-1.5a16.44,16.44,0,0,0-6.83.13c-1.58,2.58-9.28,15.39-10.58,22.38a3.16,3.16,0,0,0,2.22,3.92,7.68,7.68,0,0,0,1.82.44c2-.94,3.43-3.16,3.43-4,3.23-5.65,5.09-10.84,7.13-16.09V254Z" transform="translate(-61.77 -206.33)"/><path class="cls-2" d="M659.05,254v5.29l.23-.58c0-.21,0-.42,0-.6a1.43,1.43,0,0,1,.73-1.34l.11-.06q.54-1.34,1.14-2.7Z" transform="translate(-61.77 -206.33)"/><path class="cls-1" d="M674.73,255.41c-.91,0-2.39,1.15-3.72,2a1.41,1.41,0,0,1,.26.9c-.27,3.89-.48,14.79,1.8,18.43,1.19,1.9,5,3.1,8.27,2.9C685.09,272.94,679.09,260.85,674.73,255.41Z" transform="translate(-61.77 -206.33)"/><path class="cls-2" d="M686,275.2c-.82-4.44-4.24-11.24-7-16.3a8.84,8.84,0,0,1-.91-.42,1.44,1.44,0,0,1-.69-.81l-1.6-4.85a1.34,1.34,0,0,1-.42,0,16.67,16.67,0,0,0-7-.06h0a1.41,1.41,0,0,1-1.42-.49c-.56.71-1,1.26-1,1.26a28,28,0,0,1-2.19-2.69,1.39,1.39,0,0,1,0,.65,1.43,1.43,0,0,1-1.72,1.06l-.21,0c-.23.51-.45,1-.66,1.5h0q-.59,1.36-1.14,2.7l2.15-1.21a1.42,1.42,0,0,1,.76-.18l4.66.21a1.44,1.44,0,0,1,.63.18l2.26,1.27a1.36,1.36,0,0,1,.47.44c1.33-.84,2.81-2,3.72-2,4.36,5.45,10.36,17.53,6.61,24.22a8.41,8.41,0,0,0,2.49-.5A3.16,3.16,0,0,0,686,275.2Z" transform="translate(-61.77 -206.33)"/><path class="cls-1" d="M663.3,250l-.12-.24-.07.14A1.45,1.45,0,0,1,663.3,250Z" transform="translate(-61.77 -206.33)"/><path class="cls-2" d="M680,243.75l-7.32-7.63a17.66,17.66,0,0,0-3-.92,1.43,1.43,0,0,1-1.14-1.42v-.54c-.23,0-.46,0-.69,0a13.19,13.19,0,0,1-1.65-.12v1.42a4.77,4.77,0,0,1,2.63.54l-1,2.15c.36,2.75,1.43,11.17,1.28,11.89a2.37,2.37,0,0,1-.3.63c.37-.06.82-.12,1.35-.16a72.87,72.87,0,0,0,1.2-9.25,1.43,1.43,0,0,1,2.84.24l-.14,1.52,2.42,3.66a1.44,1.44,0,0,1,.16.34l3.31,10a4.89,4.89,0,0,0,4.14,0,7.89,7.89,0,0,0,3.55-3.57C687,251.3,683.32,247.1,680,243.75Z" transform="translate(-61.77 -206.33)"/><path class="cls-2" d="M643.11,255.16a5,5,0,0,0,3.29,1.05l6-11.08a1.42,1.42,0,0,1,.27-.36l4.46-4.25c0-.29,0-.61-.07-.91C650.7,242.88,647.92,249.79,643.11,255.16Z" transform="translate(-61.77 -206.33)"/><path class="cls-1" d="M664,232.71l-.17.82a1.43,1.43,0,0,1-1.34,1.13,34.85,34.85,0,0,0-3.8.33l-8.94,5.85c-4.29,3.39-9.16,8-9.56,9.62-.2.79.43,2.43,2,3.91a7.89,7.89,0,0,0,1,.78c4.81-5.37,7.59-12.27,13.92-15.54,0-.27,0-.52-.06-.81a1.42,1.42,0,0,1,2.82-.29c.23-.07.44-.16.68-.22-.24.06-.45.15-.68.22a.75.75,0,0,1,0,.09c.3,4.43.76,9.39,1,10.84a17.31,17.31,0,0,1,1.88.3,1.24,1.24,0,0,1,.36.18l.07-.14a2.77,2.77,0,0,1-.26-.64c-.25-1.16,1.62-9.07,2.28-11.82-.26-.27-2.18-2.43.09-2.69.32,0,.61-.05.88-.06v-1.42A13.89,13.89,0,0,1,664,232.71Z" transform="translate(-61.77 -206.33)"/><path class="cls-1" d="M673.31,216.92a11.44,11.44,0,0,0,.14-6.08,10.36,10.36,0,0,0-5.62-1.66,10.58,10.58,0,0,0-10.52,10.62,10.69,10.69,0,0,0,.3,2.46C663.38,224.44,670.49,222.54,673.31,216.92Z" transform="translate(-61.77 -206.33)"/><path class="cls-2" d="M673.45,210.84a11.44,11.44,0,0,1-.14,6.08c-2.81,5.62-9.93,7.52-15.7,5.34a10.55,10.55,0,0,0,10.22,8.17,10.14,10.14,0,0,0,1.58-.13,1.45,1.45,0,0,1,.58-.12H670a10.65,10.65,0,0,0,3.41-19.34Z" transform="translate(-61.77 -206.33)"/><path class="cls-3" d="M674.51,233.91a1.41,1.41,0,0,0-.47-.32,19.75,19.75,0,0,0-2.52-.84,13.38,13.38,0,1,0-10.21-1.18l-.06.31c-2,.12-3.28.35-3.35.36a1.46,1.46,0,0,0-.54.21l-9.3,6.09c-1.72,1.35-9.83,7.9-10.66,11.25-.49,2,.6,4.58,2.78,6.66,2.33,2.22,5.15,3.12,7.56,2.41a1.41,1.41,0,0,0,.7-.51c-2.76,5.08-5.93,11.59-6.78,16.13a6,6,0,0,0,4,7.09c4.34,1.69,11.75.39,14.22-3.54,2.83-4.52,2.46-15.78,2.28-19.23l1.12-.63,3.92.18,1.19.67c-.19,3.46-.55,14.71,2.28,19.23,2.46,3.93,9.87,5.23,14.21,3.54a6,6,0,0,0,4-7.1c-.79-4.24-3.64-10.26-6.29-15.23a7.89,7.89,0,0,0,2.9-.81c2.85-1.42,4.78-4.3,5-5.76.11-.67.37-2.24-8.44-11.13Zm-17.2-14.11A10.52,10.52,0,1,1,670,230.19H670a1.45,1.45,0,0,0-.58.12,10.14,10.14,0,0,1-1.58.13A10.58,10.58,0,0,1,657.31,219.81Zm-2.54,26.88,2.63-2.5c.23,2.57.42,4.15.58,5.16a16,16,0,0,0-4.28.69,1.43,1.43,0,0,0-.78.6c-.14.22-1.34,2.14-2.91,4.9Zm29.07,32.44c-3.41,1.33-9.25,0-10.76-2.4-2.28-3.63-2.07-14.53-1.8-18.43a1.42,1.42,0,0,0-.73-1.34l-2.26-1.27a1.44,1.44,0,0,0-.63-.18l-4.66-.21a1.42,1.42,0,0,0-.76.18L660,256.74a1.43,1.43,0,0,0-.73,1.34c.27,3.89.47,14.8-1.79,18.42-1.52,2.43-7.35,3.73-10.76,2.4a3.16,3.16,0,0,1-2.22-3.92c1.3-7,9-19.8,10.58-22.38a16.43,16.43,0,0,1,7-.09,1.43,1.43,0,0,0,1.72-1.06,1.39,1.39,0,0,0,0-.65A28,28,0,0,0,666,253.5s.45-.55,1-1.26a1.41,1.41,0,0,0,1.42.49h0a16.67,16.67,0,0,1,7,.06,1.34,1.34,0,0,0,.42,0l1.6,4.85a1.44,1.44,0,0,0,.69.81,8.84,8.84,0,0,0,.91.42c2.8,5.06,6.22,11.86,7,16.3A3.16,3.16,0,0,1,683.83,279.12ZM674,247.2l.85,2.57a17.23,17.23,0,0,0-1.78-.2c.18-.79.34-1.78.51-3Zm10.1,9a4.89,4.89,0,0,1-4.14,0l-3.31-10a1.44,1.44,0,0,0-.16-.34L674,242.12l.14-1.52a1.43,1.43,0,0,0-2.84-.24,72.87,72.87,0,0,1-1.2,9.25c-.53,0-1,.1-1.35.16a2.37,2.37,0,0,0,.3-.63c.15-.72-.92-9.14-1.28-11.89l1-2.15a5.44,5.44,0,0,0-3.52-.48c-2.27.26-.35,2.42-.09,2.69-.66,2.75-2.53,10.66-2.28,11.82a3.44,3.44,0,0,0,.38.88,1.4,1.4,0,0,0-.55-.27,17.31,17.31,0,0,0-1.88-.3c-.29-1.46-.74-6.42-1-10.84a1.42,1.42,0,1,0-2.84.2c0,.61.08,1.17.12,1.72l-4.46,4.25a1.42,1.42,0,0,0-.27.36l-6,11.08a5.8,5.8,0,0,1-4.25-1.83c-1.55-1.48-2.18-3.12-2-3.91.39-1.59,5.27-6.23,9.56-9.62l8.94-5.85a34.85,34.85,0,0,1,3.8-.33,1.43,1.43,0,0,0,1.34-1.13l.17-.82a13.22,13.22,0,0,0,3.83.57c.23,0,.46,0,.69,0v.54a1.43,1.43,0,0,0,1.14,1.42,17.66,17.66,0,0,1,3,.92l7.32,7.63c3.32,3.35,7,7.55,7.61,8.84A7.89,7.89,0,0,1,684.05,256.16Z" transform="translate(-61.77 -206.33)"/><path class="cls-4" d="M667.52,210.81c-2.54-1-4.86.73-6.43,2.58a14.88,14.88,0,0,0-2,2.78,6,6,0,0,0-.48,3.35c0,.95,1.6.86,1.66-.07.12-2,2.09-3.17,3.64-4.12s3.76-.57,4.5-2.56A1.54,1.54,0,0,0,667.52,210.81Z" transform="translate(-61.77 -206.33)"/><path class="cls-4" d="M653,241.72c.76-.61-.19-1.67-1-1.14a61.94,61.94,0,0,0-5.91,4.84,31.62,31.62,0,0,0-3.82,4c-.82,1,.48,2.43,1.6,1.89a3.25,3.25,0,0,0,1.36-1.41c.26-.4.7-.49.94-.87.37-.59.76-1.18,1.18-1.74A33.21,33.21,0,0,1,653,241.72Z" transform="translate(-61.77 -206.33)"/><path class="cls-4" d="M682.29,252.75a3.57,3.57,0,0,1-.52.26,5.62,5.62,0,0,1-.42-.85,12.27,12.27,0,0,1-1.22-3.4c-.08-.82-1.48-.77-1.46.06a20.65,20.65,0,0,0,1,4.2,5,5,0,0,0,.65,1.65,1.42,1.42,0,0,0,.45.43,1.27,1.27,0,0,0,.93.58,2.66,2.66,0,0,0,2-.67C684.88,254,683.63,251.92,682.29,252.75Zm-1.38,2.39a1.12,1.12,0,0,0,.43.16A.67.67,0,0,1,680.91,255.14Z" transform="translate(-61.77 -206.33)"/><path class="cls-4" d="M652.87,259.33c-2.21,2.15-3.12,5.46-4.62,8.11-1.1,2-2.18,4.62-1.8,6.87.52,3.11,5.21,2.25,4.79-.85a21.61,21.61,0,0,1,.19-4.85,22.72,22.72,0,0,1,2.53-8.3C654.36,259.63,653.5,258.71,652.87,259.33Z" transform="translate(-61.77 -206.33)"/><path class="cls-4" d="M673.9,259.34c-.11-.75-1.37-.95-1.57-.14a26,26,0,0,0,1.57,15.72,2.2,2.2,0,0,0,2.9,1c2.39-1,.52-4.28,0-5.92A66.23,66.23,0,0,1,673.9,259.34Z" transform="translate(-61.77 -206.33)"/><path class="cls-3" d="M694.77,260.55a47.41,47.41,0,0,0-8.29-.73h0l-2.39,0c-8.26,0-18.17.77-24.09,1.23l-3.42.25c-5.81.38-11.39,3.61-16.12,9.33a46.72,46.72,0,0,0-8.16,15.31A39.69,39.69,0,0,0,630.38,302c.06,7.46,3.34,14.4,10,21.2,5.59,5.68,12.88,10.58,19.32,14.89a130.15,130.15,0,0,1,11.94,8.63c2.34,2,3,3.43,2.85,4-.09.34-.84,2.13-7.34,4.45a154.23,154.23,0,0,1-17,4.44c-5.08,1.13-9.87,2.2-13.51,3.43-2.4.8-8,2.68-8,7.2v0a4.49,4.49,0,0,0,.05.8,3.4,3.4,0,0,0,1.61,2.37,43.58,43.58,0,0,0,22.57,6.26c9.72,0,20.23-3,33.06-9.38a3.46,3.46,0,0,0,.67-.45c7-5.95,10.45-12.15,10.12-18.42-.6-11.62-13.5-20.4-24.87-28.15a121.15,121.15,0,0,1-10.71-7.83,3.18,3.18,0,0,0-.39-.3,23,23,0,0,1-6.72-6.39,17,17,0,0,1-1.41-2.58,14.17,14.17,0,0,1-.21-11.54c1.86-4.32,5.85-7.73,11.23-9.61,1.81-.63,5.37-.93,9.14-1.25,9-.76,20.26-1.71,25.41-8.17a13,13,0,0,0,2.5-10.34C700.22,261.68,696.12,260.83,694.77,260.55Z" transform="translate(-61.77 -206.33)"/><path class="cls-5" d="M659,318a26.38,26.38,0,0,1-7.7-7.34c6.75,15.67,34.09,28.91,34.09,42.15-1.67,15-34.46,26.7-53.28,17.42a1.51,1.51,0,0,0,0,.27c17.09,10.17,34.77,5.55,52.37-3.24C710.38,345.38,673.11,330.37,659,318Z" transform="translate(-61.77 -206.33)"/><path class="cls-6" d="M654.85,278.26c11.86-3.39,27.12-3.39,33.89-13.56-.78,0-1.55-.72-2.33-1.49-10.39-.22-25.06,1.15-29.6,1.45-14.34.94-24.76,23.21-23,37.11,0,20,27.24,31.24,40.13,42.38,20.21,17.47-41.82,17.91-41.82,26.1,18.82,9.29,51.61-2.42,53.28-17.42,0-13.24-27.35-26.48-34.09-42.15a20.43,20.43,0,0,1-1.69-3.08,13,13,0,0,1-3.2-5.61C643,291.81,646.38,280,654.85,278.26Z" transform="translate(-61.77 -206.33)"/><path class="cls-5" d="M662.57,281.84c8.36-2.91,37.21.8,34.81-16.09-.25-1.75-4.87-2.42-11-2.55.78.77,1.55,1.49,2.33,1.49-6.78,10.17-22,10.17-33.89,13.56C646.38,280,643,291.81,646.38,302a13,13,0,0,0,3.2,5.61C645.06,297.58,650,286.22,662.57,281.84Z" transform="translate(-61.77 -206.33)"/><path class="cls-7" d="M664,362.7a108.75,108.75,0,0,1-12.88,3.6c-3.54.73-7.14.86-10.58,2-1.57.51-1,3.15.56,3.17,7.82.08,16.62-4.05,23.73-7,1.16-.48.32-2.11-.82-1.72Z" transform="translate(-61.77 -206.33)"/><path class="cls-7" d="M640,305.15c.82-2.61.64-5.27.89-8,.29-3.11,1-6.09,1.38-9.18a1.52,1.52,0,0,0-2.74-1c-3.53,5.09-2.36,12.21-1.44,18a1,1,0,0,0,1.91.17Z" transform="translate(-61.77 -206.33)"/><path class="cls-7" d="M650.77,271.85c3.36-1.49,8-1,11.65-1.32a1.33,1.33,0,0,0,.78-2.16c-3.59-3.32-10.42-1.31-13.54,1.76a1,1,0,0,0,1.11,1.72Z" transform="translate(-61.77 -206.33)"/></g><g id="guy6"><path class="cls-1" d="M173.89,553.57a1.4,1.4,0,0,1-.16-.5l-.24-2a13.21,13.21,0,0,1-1.86,3.87.71.71,0,0,1-.94,0l-3.41-2.82a.71.71,0,0,1-.26-.57l.58-15.43a3.23,3.23,0,0,1-1.77-3.06l0-.28c.16-1.31.23-1.85,1.5-2,.19,0,.44,0,.75-.11l.72-.14-.13-.87a14.87,14.87,0,0,1-4.24-.2l.18,1.49a1.43,1.43,0,0,1-1.07,1.56c-.18,0-17.45,4.47-30.75,15.8-.16,1.27-.41,4.85,1.5,6.86,1.24,1.3,3.27,1.78,6,1.45,7.6-7.95,16.94-17.28,19.21-17.55a2,2,0,0,1,1.69.6c1.75,1.76,1.17,8.78.67,12.8a1.36,1.36,0,0,1-.18.53c-.29.51-7.13,12.52-9.17,15.56-5.57,8.31-10.19,17.78-9.5,19.47a4.46,4.46,0,0,0,3.07,2.22c3.13.73,7.47-.91,12.25-4.59,1.63-10.32,4.71-27,7.82-29.34l.08-.05.11-.08a2.55,2.55,0,0,1,.34-.13h0a2.32,2.32,0,0,1,.41-.1l2.47-.58a1.43,1.43,0,1,1,.66,2.77l-.14,0c2.55,4.73,4.5,16.11,4.82,19.55,1.64.45,6.68.57,8.58-1a1.49,1.49,0,0,0,.43-1.89C182,568.75,174,553.72,173.89,553.57Z" transform="translate(-61.77 -206.33)"/><path class="cls-1" d="M168.78,526.88a12,12,0,1,0-13.4-10.49A12,12,0,0,0,168.78,526.88Z" transform="translate(-61.77 -206.33)"/><path class="cls-1" d="M171.81,533.43a4.08,4.08,0,0,1-.9,2.35l1.32,4.89-.39-3.24a1.43,1.43,0,0,1,2.83-.34l.44,3.62,1.19-.7a1.43,1.43,0,0,1,1.45,2.46l-1.46.86a1.37,1.37,0,0,1-.84.16l1.1,9,.3.57c.71-.13,1.43-.28,1.87-.39,1.38-3.18,4.35-11.1,4.24-13C181.46,538.63,176.08,535.7,171.81,533.43Z" transform="translate(-61.77 -206.33)"/><path class="cls-3" d="M178.22,555.67c2.3-.46,2.56-.74,2.82-1.27.08-.15,6.8-14.61,3.95-16.84-1.46-1.14-10.65-6-13.33-7.45l-.14-.91a14.9,14.9,0,1,0-10-.59l.19,1.54c-4.32,1.24-19.14,6-31.1,16.41a1.43,1.43,0,0,0-.46.79c-.05.25-1.23,6.28,2.16,9.85,2,2.09,5,2.85,9,2.26a1.44,1.44,0,0,0,.82-.42c6.87-7.2,14.73-14.9,17.33-16.71a40.47,40.47,0,0,1-.26,9.59c-1,1.71-7.09,12.4-8.92,15.13-1.21,1.82-11.81,17.85-9.7,22.28a7.28,7.28,0,0,0,5,3.77c2.9.68,7.86.28,15.1-5.45a1.42,1.42,0,0,0,.52-.9c1.81-11.58,4.66-24.8,6.38-27.59,2,2.78,4.76,16.94,4.71,19.28a1.75,1.75,0,0,0,1,1.73c1.83,1,9,1.45,12.17-1.18a4.32,4.32,0,0,0,1.3-5C185.23,569.44,180.76,560.58,178.22,555.67Zm.49-3c-.44.11-1.16.26-1.87.39l-.3-.57-1.1-9a1.37,1.37,0,0,0,.84-.16l1.46-.86a1.43,1.43,0,0,0-1.45-2.46l-1.19.7-.44-3.62a1.43,1.43,0,0,0-2.83.34l.39,3.24-1.32-4.89a4.08,4.08,0,0,0,.9-2.35c4.27,2.27,9.65,5.2,11.14,6.19C183.06,541.54,180.09,549.46,178.71,552.64Zm-23.33-36.25a12,12,0,1,1,13.4,10.49A11.94,11.94,0,0,1,155.38,516.39Zm28.22,60.42c-1.9,1.57-6.94,1.45-8.58,1-.32-3.44-2.27-14.82-4.82-19.55l.14,0a1.43,1.43,0,1,0-.66-2.77l-2.47.58a2.32,2.32,0,0,0-.41.1h0a2.55,2.55,0,0,0-.34.13l-.11.08-.08.05c-3.11,2.29-6.19,19-7.82,29.34-4.77,3.68-9.11,5.32-12.25,4.59a4.46,4.46,0,0,1-3.07-2.22c-.69-1.69,3.93-11.16,9.5-19.47,2-3,8.88-15.05,9.17-15.56a1.36,1.36,0,0,0,.18-.53c.5-4,1.08-11-.67-12.8a2,2,0,0,0-1.69-.6c-2.27.28-11.61,9.61-19.21,17.55-2.76.33-4.79-.15-6-1.45-1.91-2-1.66-5.59-1.5-6.86,13.3-11.33,30.57-15.76,30.75-15.8a1.43,1.43,0,0,0,1.07-1.56l-.18-1.49a14.87,14.87,0,0,0,4.24.2l.13.87-.72.14c-.31.06-.56.09-.75.11-1.27.14-1.34.68-1.5,2l0,.28a3.23,3.23,0,0,0,1.77,3.06L167,551.62a.71.71,0,0,0,.26.57L170.7,555a.71.71,0,0,0,.94,0,13.21,13.21,0,0,0,1.86-3.87l.24,2a1.4,1.4,0,0,0,.16.5c.08.15,8.1,15.18,10.14,21.35A1.49,1.49,0,0,1,183.6,576.81Z" transform="translate(-61.77 -206.33)"/><path class="cls-4" d="M161.87,506.28a11.75,11.75,0,0,0-2.39,2.16,23.78,23.78,0,0,0-1.62,2.68c-1.54,2.22-.67,6.29.79,8.17a.76.76,0,0,0,1.26-.81c-.16-.33-.09-.48-.18-.15a9.15,9.15,0,0,0,0-2.06,5.77,5.77,0,0,1,.85-3.22c1.48-2.67,4.14-3.66,6.37-5.5a1.27,1.27,0,0,0-.09-2C165.09,504.4,163.5,505.2,161.87,506.28Z" transform="translate(-61.77 -206.33)"/><path class="cls-4" d="M156.88,537.3c.62-.41.09-1.57-.63-1.34-4.5,1.42-9.21,4.38-13.18,6.92-2,1.28-8,3.48-7.9,6.49a1.91,1.91,0,0,0,2.68,1.88,10.76,10.76,0,0,0,2.52-2c1.77-1.58,3.68-3,5.54-4.51C149.41,542,153.17,539.76,156.88,537.3Z" transform="translate(-61.77 -206.33)"/><path class="cls-4" d="M160.75,556.81c-3.93,10.09-13.32,18-15,29.09a1.06,1.06,0,0,0,1.74.91c3.46-3.51,6.16-8.85,8.13-13.37,2.21-5.09,5.3-10.73,6.58-16.09A.78.78,0,0,0,160.75,556.81Z" transform="translate(-61.77 -206.33)"/><path class="cls-4" d="M178.09,573.37c-.25-1-.35-2-.58-2.94a10,10,0,0,0-.46-1.57c-.2-.49-.68-.78-.85-1.31-.28-.86-1.47-.32-1.41.45.09,1.23.4,2.51.54,3.75a14.52,14.52,0,0,0,.11,2.66,2.93,2.93,0,0,0,.28,1.78,1.39,1.39,0,0,0,2.52-.11A2.71,2.71,0,0,0,178.09,573.37Z" transform="translate(-61.77 -206.33)"/><path class="cls-3" d="M142.57,460.92c-.62-.17-1.3-.4-2-.64A21.65,21.65,0,0,0,135,459h-.21a3.36,3.36,0,0,0-1.48.34c-1.63.79-3.31,1.69-5.14,2.74-13.42,7.75-27,20.14-37.33,34a108.81,108.81,0,0,0-13.11,22.62,69,69,0,0,0-5.66,24A46.66,46.66,0,0,0,77,565.86c3.85,7.58,9.95,14.23,18.13,19.79l.28.2.69.47c6.28,4.11,12.89,6.29,19.13,6.29a24.58,24.58,0,0,0,21.94-12.93c5.39-9.89,4.2-22.59-3.15-34A128.92,128.92,0,0,0,120.58,530a81.25,81.25,0,0,0-9.66-8.51c-3.23-2.33-6-3.68-8.38-4.07.77-1.31,1.53-2.58,2.26-3.81,5.67-9.44,20.83-32.9,38.95-46.71a3.39,3.39,0,0,0-1.18-6Zm-50.8,83.83c0-.07,0-.13,0-.2a50.56,50.56,0,0,1,4.84-16.06c.5.89,1.06,1.8,1.63,2.72,2,3.24,4.82,7.12,7.76,11.21,3.31,4.62,6.73,9.39,9.34,13.59,3.63,5.85,4.08,8.06,4.1,8.74a6.08,6.08,0,0,1-1.59,4.66c-1.58,1.63-4.38,2.57-7.7,2.57a18.12,18.12,0,0,1-5.25-.78c-3.22-1-5.57-2.73-6.28-4.68a57.89,57.89,0,0,0-4.05-8.59C92.22,553.6,90.78,551,91.77,544.75Z" transform="translate(-61.77 -206.33)"/><path class="cls-6" d="M127.56,573.29c8.36-13.37-9.67-39.92-26.42-43.9,6.58,10.41,21.5,28.4,21.72,35.24.33,9.91-10.64,12.33-18.91,9.8C99.05,577,93,574,90.28,569.9c-25.42-42.37,22-72.87,40.67-105.07-.45.45-.78.41-1.06.16C92,486.85,48.37,549.8,97,582.84,109.56,584.56,123.05,580.05,127.56,573.29Z" transform="translate(-61.77 -206.33)"/><path class="cls-5" d="M131.17,547.53c-3.38-5.23-27-33.23-32.88-25.5-.74,1,.54,3.71,2.85,7.36,16.76,4,34.78,30.52,26.42,43.9-4.51,6.76-18,11.27-30.53,9.55l.93.64C125.14,601.28,148.48,574.31,131.17,547.53Z" transform="translate(-61.77 -206.33)"/><path class="cls-5" d="M134.82,462.35c-1.63.79-3.27,1.68-4.93,2.63.27.26.61.3,1.06-.16C112.31,497,64.86,527.54,90.28,569.9,93,574,99.05,577,104,574.44c-4-1.21-7.3-3.55-8.47-6.76-3.73-10.22-8.8-12.44-7.05-23.46,1.11-11.38,7.61-22.51,13.47-32.34,9.72-16.18,24.33-35.88,39.81-47.68C139.5,463.61,137.08,462.49,134.82,462.35Z" transform="translate(-61.77 -206.33)"/><path class="cls-7" d="M93.29,508.29c2.21-3.17,4.66-6.18,7.09-9.18,2.09-2.58,5.54-5.12,6.43-8.38.29-1.07-.72-2.31-1.86-1.71-2.84,1.5-4.38,4.82-6.18,7.39-2.47,3.53-4.77,7.12-7,10.83-.6,1,.81,2,1.5,1Z" transform="translate(-61.77 -206.33)"/><path class="cls-7" d="M119.26,577.63a7,7,0,0,0,5.53-3.9c.56-1.1-1.16-2.31-2-1.4a20.71,20.71,0,0,1-4.12,3.47,1,1,0,0,0,.58,1.83Z" transform="translate(-61.77 -206.33)"/></g><g id="guy7"><path class="cls-3" d="M280.33,498.74c-8-5.67-17.81-9.2-24.51-11.37-1.67-.54-3.48-1.2-5.39-1.9-5-1.84-10.2-3.74-14.46-4h0c-.33,0-.66,0-1,0-3.13,0-5.5,1-7,3-2,2.53-2.24,6.28-.89,11.49,1.66,6.36,5.82,10.85,12.36,13.33,5.26,2,11.32,2.5,17.57,2.88,6.57.4,10.78,1.9,12.5,4.46,2.62,3.9.38,11.51-2.14,19-.81,2.4-1.75,5.09-2.75,7.95-3.77,10.8-8.46,24.25-11.65,37.25-3.86,15.75-4.6,27.27-2.26,35.2a3.39,3.39,0,0,0,4.6,2.15,23.19,23.19,0,0,0,7.88-5.71c5.66-6.21,8.21-15,10.68-23.49,1.13-3.9,2.21-7.58,3.53-10.88,1.19-3,2.47-6,3.83-9.16,6.12-14.41,13.06-30.75,13.06-46.27C294.32,513.37,289.61,505.34,280.33,498.74Z" transform="translate(-61.77 -206.33)"/><path class="cls-6" d="M282,541c17.19-31.25-20.35-43.77-46.24-56.16-4.76-.29-7.56,2-5.41,10.23,3.08,11.83,15.38,13,26.86,13.69,20.71,1.26,18.5,12.7,13.37,27.89C263.76,556.87,248.42,596.13,254,615a19.66,19.66,0,0,0,6.73-4.89C257,585.56,270.13,563.29,282,541Z" transform="translate(-61.77 -206.33)"/><path class="cls-5" d="M290.93,522.61c0-18.35-21.46-27.26-36.15-32-6-1.95-13.72-5.42-19-5.74C261.66,497.24,299.2,509.77,282,541c-11.88,22.28-25.06,44.55-21.3,69.11,7.58-8.32,9.29-22.69,13.57-33.34C280.94,560.23,290.93,540.7,290.93,522.61Z" transform="translate(-61.77 -206.33)"/><path class="cls-7" d="M246.41,502.94c-2.07-1.14-2.78-2.91-4.24-4.64a35.46,35.46,0,0,1-2.12-3c-.76-1.11-2.35-1.76-3.48-2.42a1.56,1.56,0,0,0-2.41,1.11,9.37,9.37,0,0,0,.3,4.2,11.54,11.54,0,0,0,3.33,4c2.12,1.92,5.23,2.36,8,2.47.88,0,1.56-1.25.65-1.75Z" transform="translate(-61.77 -206.33)"/><path class="cls-7" d="M265.43,564.26a31.75,31.75,0,0,0,3.06-7c.48-1.3-1.43-2.37-2.19-1.15a31.88,31.88,0,0,0-2.87,7.1,1.14,1.14,0,0,0,2,1Z" transform="translate(-61.77 -206.33)"/><path class="cls-2" d="M292,492.69c-.81-.2-1.63-.4-2.44-.57a1.47,1.47,0,0,1-.52,0l-1.11-.3q-1.31-.24-2.59-.42,0,2.52-.15,5.52a1.54,1.54,0,0,1,.25.17c5.61,5.77,12.19,12,13.66,12.68a15.47,15.47,0,0,0,4.46-1.46c-2.51-1.73-4.95-4-8.11-6C292.89,501.84,288.89,496.26,292,492.69Z" transform="translate(-61.77 -206.33)"/><path class="cls-1" d="M308.88,504.63a7.75,7.75,0,0,0,2.41-5.16A126.8,126.8,0,0,0,292,492.69c-3.12,3.57.88,9.15,3.44,9.63,3.17,2,5.6,4.22,8.11,6A18,18,0,0,0,308.88,504.63Z" transform="translate(-61.77 -206.33)"/><path class="cls-2" d="M280.73,469.44a5.53,5.53,0,0,1-2.07,1.67l.32,2.69a11.63,11.63,0,0,1,2.18.61h-.05a2.19,2.19,0,0,1,.64.4c.11-.67.2-1.38.28-2a1.42,1.42,0,0,1,2.83.35,39,39,0,0,1-1,5.52l.06.2c1.25,1.64,2.73,6.91,3.49,9.87l1.14.31,1.1.22a7.74,7.74,0,0,0,5-2.78,1.84,1.84,0,0,0,.41-1.29c-.33-1.15-4.87-8.42-9.25-15.06a16.13,16.13,0,0,1-3.41-.26A15.6,15.6,0,0,1,280.73,469.44Z" transform="translate(-61.77 -206.33)"/><path class="cls-2" d="M295.62,448.65a12.4,12.4,0,0,0-1.28-1.55,13.42,13.42,0,0,1-2.23,11.08c-5.35,5.48-11.86,5.74-17.7,3.24l0,.05a13,13,0,0,0,8.45,5.55,13.36,13.36,0,0,0,3.09.2,1.39,1.39,0,0,1,.82-.06,12.17,12.17,0,0,0,10.78-9.66A11.7,11.7,0,0,0,295.62,448.65Z" transform="translate(-61.77 -206.33)"/><path class="cls-1" d="M292.1,458.19a13.42,13.42,0,0,0,2.23-11.08,13,13,0,0,0-7-3.78c-6.87-1.29-13.47,3-14.69,9.52a11.68,11.68,0,0,0,1.78,8.58C280.24,463.92,286.76,463.67,292.1,458.19Z" transform="translate(-61.77 -206.33)"/><path class="cls-2" d="M243.81,483.11a10.06,10.06,0,0,0,3.94,1c3-3.34,12.73-14.1,16.94-17C256.11,465.07,253.25,480.94,243.81,483.11Z" transform="translate(-61.77 -206.33)"/><path class="cls-2" d="M269.91,476.1a14,14,0,0,1,3.13-1.74,42.66,42.66,0,0,1,3.15-4l.14,0a6.39,6.39,0,0,1-.45-.61c-.54-1.43-.13-2.13.37-2.48a15.54,15.54,0,0,1-4.79-5.21,1.31,1.31,0,0,1-.16,0,7.05,7.05,0,0,0-2-.24C274.38,465,272.71,470.85,269.91,476.1Z" transform="translate(-61.77 -206.33)"/><path class="cls-1" d="M279.24,480.44l2.29.43a9.34,9.34,0,0,0-1.59-3.86c-7.59-2.84-12.72,6.12-12.93,6.51h0a1.43,1.43,0,0,1-2.49-1.38,19.37,19.37,0,0,1,5.39-6c2.8-5.24,4.47-11.13-.63-14.27-.85,0-1.8,0-2.65.08-2,.77-21,8.09-27.27,13.64a9.86,9.86,0,0,0,2.39,6.08,7.21,7.21,0,0,0,2.06,1.47c9.44-2.17,12.3-18,20.88-16a5.83,5.83,0,0,1,1.18-.69,1.43,1.43,0,0,1,1.78,1.93c-3.32,7.22-7.49,18.59-6.4,21.28s4,3.2,5.38,3.29c1.84-5.89,4.5-13,6.56-14h0a1.43,1.43,0,1,1,1.21,2.58l.06,0c-1.89,1.4-6.87,17.22-7.19,19.72a2.79,2.79,0,0,0,.76,1.72,9.06,9.06,0,0,0,2.11,1.9C282.38,506,273.9,486.46,279.24,480.44Z" transform="translate(-61.77 -206.33)"/><path class="cls-2" d="M281.53,480.87l-2.29-.43c-5.35,6,3.13,25.54-9.09,24.35A13.33,13.33,0,0,0,276,506.9c3.61.45,5,0,5.49-.23C283.18,492.4,282.48,484.79,281.53,480.87Z" transform="translate(-61.77 -206.33)"/><path class="cls-3" d="M284.13,507.92a1.45,1.45,0,0,0,.11-.39c.3-2.47.54-4.77.71-6.91,5.57,5.66,11.93,11.74,13.75,12s8.1-1.93,11.87-5.6a10.5,10.5,0,0,0,3.53-8.57,1.42,1.42,0,0,0-.82-1.16,128.94,128.94,0,0,0-18.81-6.87A8.25,8.25,0,0,0,297,488a4.52,4.52,0,0,0,.81-3.55c-.42-1.75-5.89-10.24-8.87-14.79A14.91,14.91,0,0,0,300.38,458c1.51-8.08-4.11-15.94-12.54-17.51s-16.51,3.72-18,11.8a14.3,14.3,0,0,0,.36,6.7,28,28,0,0,0-4,.07,1.35,1.35,0,0,0-.37.09c-.91.34-22.43,8.46-28.89,14.75a1.41,1.41,0,0,0-.43,1,13,13,0,0,0,3.18,8.71,11.65,11.65,0,0,0,8.66,3.39,1.43,1.43,0,0,0,1.09-.48c4.63-5.2,9.79-10.67,13.35-14.08-2.43,6-5.54,14.83-4.16,18.23,1.51,3.72,5.06,4.73,7.18,5-.78,2.67-1.29,4.72-1.34,5.14a5.32,5.32,0,0,0,1.34,3.83,15,15,0,0,0,9.84,5.09C282.25,510.54,283.78,508.73,284.13,507.92Zm24.75-3.29a19.37,19.37,0,0,1-9.77,5.11c-1.47-.66-8-6.91-13.66-12.68a1.54,1.54,0,0,0-.25-.17q.16-3,.15-5.52,1.29.18,2.59.42l1.11.3a1.47,1.47,0,0,0,.52,0,121.52,121.52,0,0,1,21.71,7.35A7.75,7.75,0,0,1,308.88,504.63ZM295,485.16a1.84,1.84,0,0,1-.41,1.29,7.74,7.74,0,0,1-5,2.78l-1.1-.22-1.14-.31c-.76-3-2.24-8.23-3.49-9.87l-.06-.2a39,39,0,0,0,1-5.52,1.42,1.42,0,0,0-2.83-.35c-.08.65-.18,1.36-.28,2a2.19,2.19,0,0,0-.64-.4h.05a11.63,11.63,0,0,0-2.18-.61l-.32-2.69a5.53,5.53,0,0,0,2.07-1.67,15.6,15.6,0,0,0,1.63.4,16.13,16.13,0,0,0,3.41.26C290.14,476.74,294.68,484,295,485.16Zm-7.7-41.83c6.88,1.29,11.48,7.65,10.26,14.19a12.17,12.17,0,0,1-10.78,9.66,1.39,1.39,0,0,0-.82.06,13.36,13.36,0,0,1-3.09-.2c-6.88-1.29-11.48-7.65-10.26-14.19S280.44,442,287.32,443.32ZM276,506.9a12,12,0,0,1-7.93-4,2.79,2.79,0,0,1-.76-1.72c.32-2.49,5.3-18.32,7.19-19.72l-.06,0a1.43,1.43,0,1,0-1.21-2.58h0c-2.06,1-4.72,8.1-6.56,14-1.35-.09-4.28-.59-5.38-3.29s3.08-14.06,6.4-21.28a1.43,1.43,0,0,0-1.78-1.93c-3.15,1.15-14.81,14-18.12,17.73a8.63,8.63,0,0,1-6-2.47,9.86,9.86,0,0,1-2.39-6.08c6.25-5.56,25.25-12.87,27.27-13.64a15.6,15.6,0,0,1,4.69.15,1.31,1.31,0,0,0,.16,0,15.54,15.54,0,0,0,4.79,5.21c-.5.35-.91,1.05-.37,2.48a6.39,6.39,0,0,0,.45.61l-.14,0a42.66,42.66,0,0,0-3.15,4,18,18,0,0,0-8.52,7.77,1.43,1.43,0,0,0,2.49,1.38h0c.22-.39,5.34-9.35,12.93-6.51.5.58,4.38,5.8,1.52,29.66C281,506.89,279.59,507.34,276,506.9Z" transform="translate(-61.77 -206.33)"/><path class="cls-4" d="M257.64,466.4c-5,2.45-10.27,4.85-15.08,7.74-2.41,1.44-2,5.38.33,6.82.72.45,1.83-.28,1.52-1.14a17.08,17.08,0,0,1-.64-3.12c-.09-.51.07.49,1-.21S247,475,248,474.35c3.46-2.19,6.78-4.62,10.31-6.68A.73.73,0,0,0,257.64,466.4Z" transform="translate(-61.77 -206.33)"/><path class="cls-4" d="M286.59,445.21a3.27,3.27,0,0,0-2.11-1c-2-.27-3.81.7-5.51,1.68-2.85,1.65-5.62,5.66-5.31,9,.07.78,1.32,1.12,1.48.22.49-2.7,3-4.37,5-5.93a12.16,12.16,0,0,1,5.86-2.28.9.9,0,0,0,.84-.59A.78.78,0,0,0,286.59,445.21Z" transform="translate(-61.77 -206.33)"/><path class="cls-4" d="M274.5,484.54c-1.15,2.43-2,4.89-3.13,7.32-1.2,2.68-2.55,5.51-2.67,8.48-.08,2,2.79,2.3,3.41.5,1.74-5.06,2.38-10.54,3.75-15.71C276.07,484.34,274.87,483.76,274.5,484.54Z" transform="translate(-61.77 -206.33)"/><path class="cls-4" d="M268.93,462.54c-1.6-.3-2.31,2.14-.7,2.44S270.54,462.84,268.93,462.54Z" transform="translate(-61.77 -206.33)"/><path class="cls-4" d="M307.49,499.88c-1.59-1-3.76-2.57-5.68-2.69a15.88,15.88,0,0,1-2.65-.62,17.93,17.93,0,0,1-2.94-.81.75.75,0,0,0-.77,1.28,41.42,41.42,0,0,0,5,2.26c2,1,3.65,2.67,5.82,3.29A1.5,1.5,0,0,0,307.49,499.88Z" transform="translate(-61.77 -206.33)"/></g><g id="guy8"><path class="cls-3" d="M408.72,458.53c-4.52-3.47-10.61-5.31-17.61-5.31-9.75,0-19.8,3.69-26.23,9.64a24.88,24.88,0,0,0-5.51,7.23c-2.72,2.58-5.15,5.58-4,8.67.84,2.14,2.94,3.23,6.27,3.23a25.51,25.51,0,0,0,2.83-.18c-7.63,3.91-12,9.17-13,15.64-1.43,9.39,4.37,20.5,17.7,33.92-5.49,6.65-10.88,13.71-14.27,21.14a30.64,30.64,0,0,0-3.18,13.83,19.11,19.11,0,0,0,6,13.24,25.07,25.07,0,0,0,1.92,1.7,3.59,3.59,0,0,0,.34.24,21.19,21.19,0,0,0,11.21,2.92c6.15,0,13.07-2.08,19.47-5.86s11.32-8.6,14.08-13.71c4.25-7.88,3-16.44-3.81-26.16-1.8-2.57-2.75-4.46-2.89-5.77a2.73,2.73,0,0,1,.16-1.32,19.35,19.35,0,0,1,3.06-4.33c1.09-1.32,2.32-2.82,3.66-4.68,8.5-11.83,13.59-22,15.56-31a33.78,33.78,0,0,0-.41-17.36C418.27,468.19,414.43,462.92,408.72,458.53Zm-37.58,108.7a3.32,3.32,0,0,0-.12-.44c-.45-1.31.6-4.84,5-10.48a81.46,81.46,0,0,1,8.48-9.06c3,3.42,5.4,7.81,3.68,12.14-2.05,5.17-9.14,8.77-14.23,8.77-1.79,0-2.58-.47-2.75-.72A.57.57,0,0,1,371.14,567.23Zm12.48-89.75c4-1.08,7.78-2.09,9.49-2.33l.32,0c7.57,1,9.24,2.84,9.6,3.58,1.1,2.23-2.06,7.73-5.12,13-.74,1.29-1.51,2.63-2.29,4-1.6,2.46-3.07,5.1-4.5,7.65-3.07,5.48-6,10.68-9.94,14.23a42.18,42.18,0,0,1-8-13.17c-1.73-4.87-2.31-9.92-3.11-16.91l-.17-1.46c-.07-.58-.13-1.16-.2-1.77a3.38,3.38,0,0,0-1.76-2.59,3.52,3.52,0,0,0-.75-.29c2.37-.41,5.25-1,8.78-1.93C378.55,478.84,381.13,478.15,383.62,477.48Z" transform="translate(-61.77 -206.33)"/><path class="cls-5" d="M398.24,540.65c-2.23-3.18-3.28-5.45-3.48-7.35a5,5,0,0,0-.61,2.14c0,10.17,8.47,18.64,3.39,28.81-8.47,15.25-23.73,10.17-37.28,11.86a9.08,9.08,0,0,1-.07,1,21.28,21.28,0,0,0,1.66,1.47c12,7.35,33.47-3.24,40-15.37C406.13,555.31,403.1,547.58,398.24,540.65Z" transform="translate(-61.77 -206.33)"/><path class="cls-5" d="M370.42,520.18c5.05,7.08,8.9,5.11,11.9.93-.51.41-1,.79-1.59,1.15-12-13.15-12.5-20.78-14.23-35.78C361,496.59,363.28,510.18,370.42,520.18Z" transform="translate(-61.77 -206.33)"/><path class="cls-6" d="M375.12,476.21c7.14-1.79,14.51-4,17.52-4.42C385.6,469.64,378.16,469.87,375.12,476.21Z" transform="translate(-61.77 -206.33)"/><path class="cls-6" d="M394.75,533.29a6.13,6.13,0,0,1,.36-2.89c-1-.66-1.52-1.21-1-1.75,6.78-22,33.89-49.15,5.08-66.09-9-5.14-20.9-2.48-32,2.79a21.27,21.27,0,0,0-5,6.78c-9.57,8.8,1.37,7,13,4.08,3-6.34,10.48-6.57,17.52-4.42a4.64,4.64,0,0,1,1.08-.06c20.3,2.69,12.45,12,4.8,25.78-5.2,8-9.09,17.95-16.2,23.59-3,4.18-6.85,6.15-11.9-.93-7.14-10-9.44-23.59-3.91-33.7-.07-.59-.13-1.16-.2-1.77-24.09,12.13-5.1,34.23,7.53,46.44-10.44,12.48-27.09,32.92-13.66,46a9.08,9.08,0,0,0,.07-1c13.56-1.69,28.81,3.39,37.28-11.86,5.08-10.17-3.39-18.64-3.39-28.81A5,5,0,0,1,394.75,533.29Zm-26.31,36.07a19.48,19.48,0,0,1-4.81-1.73c3.39-11.86,6.78-23.73,20.34-27.12a5.76,5.76,0,0,0,.51,2.29l.26-.21C406.7,563.28,373.75,577.17,368.45,569.36Z" transform="translate(-61.77 -206.33)"/><path class="cls-5" d="M384.48,542.81a5.76,5.76,0,0,1-.51-2.29c-13.56,3.39-16.95,15.25-20.34,27.12a19.48,19.48,0,0,0,4.81,1.73,4,4,0,0,1-.63-1.46C365.39,560.84,379.59,546.83,384.48,542.81Z" transform="translate(-61.77 -206.33)"/><path class="cls-5" d="M406.65,461.22c-10.16-7.81-29.37-5.21-39.47,4.13,11.14-5.27,23.05-7.93,32-2.79,28.81,16.95,1.7,44.06-5.08,66.09-.55.55,0,1.09,1,1.75,1-2.7,3.84-5.2,7.13-9.79C414.5,503.57,428.52,478,406.65,461.22Z" transform="translate(-61.77 -206.33)"/><path class="cls-7" d="M369,473.86a6.76,6.76,0,0,1,1.23-1.07,18,18,0,0,0,1.95-2c1.27-1.23,2.65-2.28,3.86-3.55a1.66,1.66,0,0,0-1.35-2.87c-2.37.36-4.08,1.81-5.63,3.58-1.19,1.36-3,4-1.6,5.75l-.25-.79c0,.11,0,.22,0,.32,0,.85,1.23,1.62,1.78.66Z" transform="translate(-61.77 -206.33)"/><path class="cls-7" d="M364.14,548.82c-4.44,4.68-9.44,16.42-3.54,21.61,1.08,1,2.49-.55,2-1.68-2.17-5-.56-14.56,3-18.64.71-.83-.66-2.09-1.42-1.29Z" transform="translate(-61.77 -206.33)"/><path class="cls-7" d="M391.76,566.65c2,.17,3.39-1.37,4.15-3.09a1.29,1.29,0,0,0-2.26-1.18,3.76,3.76,0,0,1-2,1.73,1.29,1.29,0,0,0,.1,2.54Z" transform="translate(-61.77 -206.33)"/><path class="cls-1" d="M377.61,606.42a4.56,4.56,0,0,1,1.62-.29l-.09-.29a15.36,15.36,0,0,1-1.88.61l.15.13A1.16,1.16,0,0,1,377.61,606.42Z" transform="translate(-61.77 -206.33)"/><path class="cls-2" d="M379.08,610.75s0,0,0-.07a7.89,7.89,0,0,1-2.38-1.32,1.42,1.42,0,0,1-.85-.34h0l-.7-.63c.46,1.7.82,3.42,1.13,5.15.84,1.37,1.71,2.71,2.58,4C379.32,614.79,379.55,612.1,379.08,610.75Z" transform="translate(-61.77 -206.33)"/><path class="cls-2" d="M378.86,617.58c-.88-1.33-1.75-2.67-2.58-4a68.09,68.09,0,0,1,1.13,10.78C377.86,622.58,378.45,620,378.86,617.58Z" transform="translate(-61.77 -206.33)"/><path class="cls-1" d="M361.41,580.39a39.65,39.65,0,0,1-1.64-4.32c-.18-.26-1.43-.72-3.4-.29h0c1.13,2.13,2.24,4.28,3.34,6.43A17.46,17.46,0,0,0,361.41,580.39Z" transform="translate(-61.77 -206.33)"/><path class="cls-2" d="M375.14,608.39l-1.63-1.48a1.37,1.37,0,0,1-.34-.46c-1-2.21-8.39-18-11.76-26.07a17.46,17.46,0,0,1-1.73,1.83c5.39,10.58,10.53,21.41,16.59,31.32C376,611.81,375.6,610.1,375.14,608.39Z" transform="translate(-61.77 -206.33)"/><path class="cls-1" d="M377.32,626.15a.71.71,0,0,1-.2-.72c.09-.31.19-.69.29-1.11a68.09,68.09,0,0,0-1.13-10.78c-6.06-9.91-11.2-20.74-16.59-31.32a25.85,25.85,0,0,1-3.22,2.5,25.85,25.85,0,0,0,3.22-2.5c-1.1-2.16-2.2-4.31-3.34-6.43-1.53.33-6.35,1.93-7.64,8.61,3.6,3.66,19.69,20.26,21.66,26.44,2.27,7.14.71,31.84-10.28,46.09a2.1,2.1,0,0,0,.27,1.38c.51.9,1.88,2.16,5.57,3a13.63,13.63,0,0,0,1.47.26,67.47,67.47,0,0,0,10.06-35.33Z" transform="translate(-61.77 -206.33)"/><path class="cls-2" d="M383.72,627.8c-.56.71-1.11,1.4-1.39,1.7a.72.72,0,0,1-.52.23h-.29a.71.71,0,0,1-.48-.19l-3.59-3.27a67.47,67.47,0,0,1-10.06,35.33c5.41.71,7.36-2.56,7.72-3.31l2.37-26.5a1.43,1.43,0,1,1,2.84.25v.12l.35-.17a1.43,1.43,0,0,1,1.91.64s0,.09,0,.13a10.77,10.77,0,0,0,2.72-1.94C384.83,629.82,384.3,628.81,383.72,627.8Z" transform="translate(-61.77 -206.33)"/><path class="cls-1" d="M385.32,630.84a10.77,10.77,0,0,1-2.72,1.94,1.41,1.41,0,0,1-.68,1.78l-1,.5c.87,3.4,3.33,13.58,2.82,18-.26,2.26,1,3.88,3.75,4.8a14.26,14.26,0,0,0,4.44.69C390.84,649.1,389.59,639.67,385.32,630.84Z" transform="translate(-61.77 -206.33)"/><path class="cls-2" d="M394.08,649.54c-2.8-5.85-6.74-14.1-9.08-23.38l-1.28,1.65c5.6,9.68,7,20.2,8.19,30.76,2.72,0,5-.65,5.38-1.23C397.36,656.39,395.63,652.76,394.08,649.54Z" transform="translate(-61.77 -206.33)"/><path class="cls-1" d="M380.7,594.7c3.44-4.59,2.26-8.25.19-12.49a12.23,12.23,0,0,0-7.36-2.45,11.45,11.45,0,0,0-8,3c1.67,3.81,3.83,8.6,6,13.29C374.67,597.88,377.21,598.19,380.7,594.7Z" transform="translate(-61.77 -206.33)"/><path class="cls-2" d="M382.2,583.33a12.18,12.18,0,0,0-1.31-1.11c2.08,4.23,3.25,7.9-.19,12.49-3.49,3.49-6,3.18-9.17,1.4,1.25,2.73,2.49,5.42,3.63,7.87h0a12.23,12.23,0,0,0,10.61-12A12,12,0,0,0,382.2,583.33Z" transform="translate(-61.77 -206.33)"/><path class="cls-1" d="M401.43,582a7.71,7.71,0,0,0-4.19-3.71,4.86,4.86,0,0,0-3.36,0c-.5,2-3,6.57-5.22,10.3a1.46,1.46,0,0,1-.31.35,15.07,15.07,0,0,1,.29,2.93,14.56,14.56,0,0,1-.26,2.59C394.69,592.49,398.66,587.57,401.43,582Z" transform="translate(-61.77 -206.33)"/><path class="cls-2" d="M388.38,594.51a15.07,15.07,0,0,1-6.68,10l.52,1.6a.71.71,0,0,1,.25.39l.57,2.37a.76.76,0,0,1,0,.16,1.56,1.56,0,0,1-.88,1.25,19.53,19.53,0,0,1,1.4,4.29c1.48-13.21,15.83-26.24,19.28-29.21a15.43,15.43,0,0,0-1.43-3.35C398.66,587.57,394.69,592.49,388.38,594.51Z" transform="translate(-61.77 -206.33)"/><path class="cls-3" d="M394.48,575.25c-2,.26-3.36,1.25-3.36,2.51a.72.72,0,0,1,0-.09c-.14.79-2,4.39-4,7.83a15.05,15.05,0,0,0-13.65-8.59,14.21,14.21,0,0,0-9.16,3.16,44.71,44.71,0,0,1-1.81-4.65c-.38-1.71-2.33-2.75-5-2.66-4.87.18-10.65,4-11.82,11.9a1.42,1.42,0,0,0,.4,1.21c5.44,5.49,19.9,20.83,21.49,25.83,1.75,5.49,1,29.75-10,43.71a1.44,1.44,0,0,0-.21.37,4.74,4.74,0,0,0,.35,3.78c1.1,2.1,3.61,3.63,7.47,4.55,7.7,1.83,11.59-2.42,12.58-4.93a1.58,1.58,0,0,0,.09-.4l1.55-17.34c.89,4.2,1.69,8.94,1.41,11.3-.51,4.38,2.54,7.54,8.17,8.43,4.21.67,10.39-.09,11-3.25.33-1.67-.81-4.16-3.43-9.63-3.4-7.1-8.54-17.83-10.21-29.44-2.09-14.54,18.73-31.69,18.94-31.87a1.42,1.42,0,0,0,.48-1.46C403.07,574.72,395.89,575.07,394.48,575.25Zm-21,4.51a12.24,12.24,0,0,1,8.68,3.57,12,12,0,0,1,3.59,8.59,12.23,12.23,0,0,1-10.61,12h0c-3.09-6.66-7-15.14-9.61-21.16A11.45,11.45,0,0,1,373.52,579.76Zm4.09,26.66a1.16,1.16,0,0,0-.21.17l-.15-.13a15.36,15.36,0,0,0,1.88-.61l.09.29A4.56,4.56,0,0,0,377.61,606.42Zm16.47,43.12c1.54,3.22,3.28,6.86,3.2,7.8-.61.88-5.53,2-9.81.54-2.75-.92-4-2.54-3.75-4.8.52-4.44-1.94-14.62-2.82-18l1-.5a1.42,1.42,0,1,0-1.26-2.55l-.35.17v-.12a1.43,1.43,0,1,0-2.84-.25l-2.37,26.5c-.4.81-2.65,4.6-9.19,3-3.69-.88-5.06-2.14-5.57-3a2.1,2.1,0,0,1-.27-1.37c11-14.24,12.55-38.95,10.28-46.09-2-6.18-18.06-22.78-21.66-26.44,1.3-6.72,6.16-8.3,7.66-8.62,2-.42,3.22,0,3.4.29.75,3.22,12.1,27.61,13.4,30.39a1.37,1.37,0,0,0,.34.46l2.33,2.1h0a1.42,1.42,0,0,0,.85.34,7.89,7.89,0,0,0,2.38,1.32s0,0,0,.07c1,2.81-1.08,11.55-2,14.68a.71.71,0,0,0,.2.72l3.72,3.4a.71.71,0,0,0,.48.19h.29a.72.72,0,0,0,.52-.23c.51-.55,2-2.44,2.67-3.35C387.34,635.43,391.29,643.69,394.08,649.54ZM383.58,614.6a19.53,19.53,0,0,0-1.4-4.29,1.56,1.56,0,0,0,.88-1.25.76.76,0,0,0,0-.16l-.57-2.37a.71.71,0,0,0-.25-.39l-.52-1.6A14.94,14.94,0,0,0,388.35,589a1.46,1.46,0,0,0,.31-.35c2.17-3.74,4.71-8.35,5.22-10.3a4.86,4.86,0,0,1,3.36,0c1.8.58,4.18,2.3,5.62,7.06C399.4,588.36,385.06,601.39,383.58,614.6Z" transform="translate(-61.77 -206.33)"/><path class="cls-4" d="M363.92,597.73l.2,0a.75.75,0,0,0-.06-1.48c.27.06-2.35-4.67-2.19-4.34-1-1.93-2.17-3.81-3.29-5.64-.64-1-1.14-2.13-1.83-3.15l-.63-.94c-.07-.21-.13-.36-.18-.48a8,8,0,0,0,.88-1.39c.46-.87.16-2.23-1-2.26a4.89,4.89,0,0,0-4,2.09c-1.49,1.83-.63,3.78.51,5.49s3.15,2.6,4.45,4.14c2.17,2.57,4.23,5.25,6.48,7.74A.79.79,0,0,0,363.92,597.73Z" transform="translate(-61.77 -206.33)"/><path class="cls-4" d="M372.83,616.83c-.23,13.42-3,27.24-9.75,38.92-1.18,2,1.76,4.19,3,2.13,7.18-11.45,9.73-27.79,8.16-41.11A.74.74,0,0,0,372.83,616.83Z" transform="translate(-61.77 -206.33)"/><path class="cls-4" d="M383.8,637.17c-.76-.29-1.22.6-.83,1.18.61.91.68,2.87.87,3.91.25,1.38.61,2.67.79,4.06.37,2.73,1.14,5.36,1.26,8.14.09,2.25,3.54,1.61,3.44-.61A32.56,32.56,0,0,0,387,643.59C386.21,641.65,386.06,638,383.8,637.17Z" transform="translate(-61.77 -206.33)"/><path class="cls-4" d="M367.79,583.21c-1.89,1.25.18,4.39,2.14,3.32a17.29,17.29,0,0,1,3.58-1.54c1.16-.33,2.37-.18,3.46-.73a.84.84,0,0,0,.12-1.44C374.05,580.57,370.82,581.2,367.79,583.21Z" transform="translate(-61.77 -206.33)"/><path class="cls-4" d="M394.09,580.3c-1.17,1.35-1.16,3.2-2.15,4.58a22.39,22.39,0,0,0-1.17,2c-.31.56-.4,1.43-.85,1.9a.86.86,0,0,0-.1,1.19l.09.09a1,1,0,0,0,1.18.26,10,10,0,0,0,3-3.31,21.33,21.33,0,0,1,1.61-1.89c.61-.78,1.15-1.65,1.7-2.47C398.93,580.41,395.78,578.36,394.09,580.3Z" transform="translate(-61.77 -206.33)"/></g><g id="guy9"><path class="cls-3" d="M547,505.6c-2.74,0-5.69,1.83-9.57,5.93l0,0,0,0-.17.17h0c-1.21,1.29-2.44,2.65-3.63,4a112.56,112.56,0,0,1-9.66,9.87l-.63.54c-10.79,9.28-18.62,14.81-23.29,16.46,1.58-2.72,5.87-8.57,17.52-20.1,10-9.87,19.57-18.2,21-19.07a24.75,24.75,0,0,1,4.8-1.94c3.5-1.16,7.48-2.46,8.31-6.17.8-3.55-2-6.71-4.44-9.07h0A14.57,14.57,0,0,0,536.95,482a19.64,19.64,0,0,0-6.74,1.3c-4.4,1.62-8.43,4.42-11.66,6.67l-.24.17a3.17,3.17,0,0,0-.3.24c-5.78,5.11-15.46,13.65-23.28,23.14A75.44,75.44,0,0,0,485,528.15c-2.72,5.59-4,10.86-3.69,15.67.37,6.68,2.26,11.2,5.77,13.79a11.65,11.65,0,0,0,7.09,2.19c4.84,0,10.85-2.31,18.37-7.06a171.23,171.23,0,0,0,14.21-10.3,63.83,63.83,0,0,1-.41,11.6c-1.68,14.15-7.26,30.31-12.48,44.24-.86,2.3-1.71,4.54-2.54,6.71-1.2,3.16-2.34,6.15-3.35,8.92a3.39,3.39,0,0,0,3.18,4.55h.21c5.24-.31,10.28-4.27,15.42-12.09,3.91-5.94,7.81-14,11.6-24.09,6.57-17.4,11.51-37.49,12.31-46.14,0-.45.31-1.87.56-3.23,2.45-13.14,3.25-21.49.11-25.28A5.5,5.5,0,0,0,547,505.6Z" transform="translate(-61.77 -206.33)"/><path class="cls-5" d="M544.89,488.67c-4.2-4-9-3.86-13.51-2.19a17,17,0,0,1,6.63.27c-10.17,22-37.28,28.81-45.76,52.54-1.46,4.37,4.6,8.73,8.48,6.63-1.77.56-3.25.65-4.24,0-6.72-4.09,36.54-43.19,40.29-45.47C542.67,496.89,554.24,497.53,544.89,488.67Z" transform="translate(-61.77 -206.33)"/><path class="cls-6" d="M529.69,554.44c4.34-8.53,8.32-17.21,8.32-27-17.1,4.66-29.92,32.11-48.93,27.48,9.44,7,31.31-11.88,40.21-18.79A56.94,56.94,0,0,1,529.69,554.44Z" transform="translate(-61.77 -206.33)"/><path class="cls-6" d="M541.4,513.86h-1.46l-.17.17c-4.38,4.68-8.88,10.1-13.56,14.1-3.19,2.73-17.42,15.22-25.48,17.78-3.88,2.09-9.94-2.26-8.48-6.63,8.47-23.73,35.59-30.5,45.76-52.54a17,17,0,0,0-6.63-.27c-4.1,1.5-8,4.26-11.13,6.44-12.65,11.17-36.58,32.59-35.57,50.72.33,5.94,2,9.45,4.4,11.26,19,4.63,31.83-22.81,48.93-27.48,0,9.82-4,18.5-8.32,27-1.75,14.7-7.43,31.05-12.68,45C536.13,581.46,547.4,542.36,541.4,513.86Z" transform="translate(-61.77 -206.33)"/><path class="cls-5" d="M539.94,513.86h1.46c6,28.5-5.27,67.61-24.39,85.62-2.13,5.68-4.19,11-5.88,15.6,17.43-1,34.67-63.2,36.16-79.25C547.68,531.67,556.55,496.27,539.94,513.86Z" transform="translate(-61.77 -206.33)"/><path class="cls-7" d="M510.34,508.9c5.5-5.48,12.35-9.36,17.92-14.77a1.54,1.54,0,0,0-2-2.34c-6.67,4.33-12.15,9.85-17.25,15.91-.66.78.6,1.92,1.32,1.2Z" transform="translate(-61.77 -206.33)"/><path class="cls-7" d="M533.25,540.23c1.12,2.38.55,6,.32,8.47a63.37,63.37,0,0,0-.55,8.51c.08,2,3,2.42,3.19.3.51-6.13,2.65-13-1.48-18.24a.89.89,0,0,0-1.48,1Z" transform="translate(-61.77 -206.33)"/><path class="cls-2" d="M492.22,498.12a8.18,8.18,0,0,0,1.23,3.18c.1.16.23.28.34.42a33.35,33.35,0,0,1,2-3.58A9.62,9.62,0,0,1,492.22,498.12Z" transform="translate(-61.77 -206.33)"/><path class="cls-1" d="M494.4,492.64a4.86,4.86,0,0,0-2.16,3.14,6.39,6.39,0,0,0,0,2.34,9.62,9.62,0,0,0,3.58,0c.53-.83,1.09-1.61,1.66-2.35-.2-1.26-.26-2.62-.45-3.89A4.93,4.93,0,0,0,494.4,492.64Z" transform="translate(-61.77 -206.33)"/><path class="cls-2" d="M499.82,492.51a6.65,6.65,0,0,0-2.81-.62c.19,1.27.25,2.63.45,3.89.38-.5.76-1,1.15-1.45A14.29,14.29,0,0,1,499.82,492.51Z" transform="translate(-61.77 -206.33)"/><path class="cls-2" d="M532.71,476.08l.26.37a16.23,16.23,0,0,1,1.83,3.85c2-1.16,4.07-2.25,6.27-3.26a8.58,8.58,0,0,0-1.69-5.26C537.07,473.19,534.58,474.4,532.71,476.08Z" transform="translate(-61.77 -206.33)"/><path class="cls-1" d="M529.76,472.85a16.3,16.3,0,0,1,2.95,3.23c1.87-1.68,4.36-2.89,6.67-4.31a8.06,8.06,0,0,0-5-2.84Z" transform="translate(-61.77 -206.33)"/><path class="cls-2" d="M472.52,522.7a12,12,0,0,0,1.17,1.56,7.29,7.29,0,0,0,7.55,2.32,118.76,118.76,0,0,1,18.88-20.67,1.57,1.57,0,0,1,.27-.18l3-1.48c1-1.3,1.73-2.32,2.12-2.82l.37-1.67C492.45,502.49,483.53,521.49,472.52,522.7Z" transform="translate(-61.77 -206.33)"/><path class="cls-1" d="M508.75,491.88l-.07-.12a9.17,9.17,0,0,1-1,.22,73.14,73.14,0,0,1-5.46,5.26,1.43,1.43,0,0,1-.64.33l-2.2.5-.15,0q-.84,1.15-1.62,2.45a1.18,1.18,0,0,1,.1.09,1.43,1.43,0,0,1-.29,2h0l-6.81,5a1.49,1.49,0,0,1-.5.24c-7,1.75-17.72,6.24-18.92,7.07-.48.63-.95,4.17,1.3,7.73,11-1.2,19.93-20.21,33.34-22.95l1-4.71a1.43,1.43,0,1,1,2.78.62l-1.49,6.69a1.42,1.42,0,0,1-.25.56c-3.73,4.89-9.86,13.38-10.44,15.38-.23.78.57,3.42,2.62,5.47,10.18,0,7.07-18.78,12.67-27.63A16.15,16.15,0,0,1,508.75,491.88Z" transform="translate(-61.77 -206.33)"/><path class="cls-2" d="M500.13,523.75a9.2,9.2,0,0,0,.94.82c2.81,2.15,6.3,2.12,10.13,0,.36-3.35,1.81-17,1.8-16.88,0-.16.1-3.85,3.48-9.55a15.89,15.89,0,0,1-3.69-2C507.2,505,510.31,523.74,500.13,523.75Z" transform="translate(-61.77 -206.33)"/><path class="cls-3" d="M543,479.26a1.42,1.42,0,0,0,.83-1.13c.45-3.66-1-10.92-9.73-12.15a1.44,1.44,0,0,0-1.14.34l-5.66,4.85a14.44,14.44,0,0,0-14.84.13,13.65,13.65,0,0,0-6,8.73,15.18,15.18,0,0,0-.07,5.93,2.55,2.55,0,0,0-.86,1.63c0,.11-.06.24-.09.36a17,17,0,0,0-3.59,2.39,8.7,8.7,0,0,0-9-.12,7.75,7.75,0,0,0-3.42,4.94,10.26,10.26,0,0,0,1.61,7.68c.14.21.29.42.45.62l-2.34,1.74c-7.06,1.8-18.16,6.35-19.69,7.5A4.91,4.91,0,0,0,468,516a13.48,13.48,0,0,0,3.53,10.11,10.14,10.14,0,0,0,11.1,3,1.42,1.42,0,0,0,.65-.51,114.54,114.54,0,0,1,12.48-14.77c.92-.92,1.76-1.74,2.51-2.44a31.09,31.09,0,0,0-3.51,6.08c-.66,2.27,1.15,6.75,4.56,9.36,2.27,1.73,7.09,4,13.95-.16a1.42,1.42,0,0,0,.68-1.07l1.89-17.75c0-.15.16-3.58,3.5-8.93a13.92,13.92,0,0,0,9.89-1.9,13.66,13.66,0,0,0,6-8.74,15,15,0,0,0,.19-5.07A70.87,70.87,0,0,1,543,479.26Zm-8.7-10.33a7.76,7.76,0,0,1,6.74,8.1c-2.2,1-4.3,2.11-6.27,3.26a16,16,0,0,0-5-7.45Zm-42.09,26.85a4.86,4.86,0,0,1,2.16-3.14,5.68,5.68,0,0,1,5.41-.12,14.29,14.29,0,0,0-1.21,1.82,34.11,34.11,0,0,0-4.82,7.38c-.11-.14-.24-.27-.34-.42A7.41,7.41,0,0,1,492.24,495.78ZM513,507.68c0-.11-1.45,13.53-1.8,16.88-3.83,2.13-7.33,2.16-10.13,0s-3.81-5.4-3.55-6.3c.58-2,6.71-10.49,10.44-15.38a1.42,1.42,0,0,0,.25-.56l1.49-6.69a1.43,1.43,0,1,0-2.78-.62l-1.42,6.38c-.38.5-1.15,1.52-2.12,2.82l-3,1.48a1.57,1.57,0,0,0-.27.18,118.76,118.76,0,0,0-18.88,20.67,7.29,7.29,0,0,1-7.55-2.32c-3.55-4-3-8.57-2.47-9.29,1.2-.83,11.9-5.32,18.92-7.07a1.49,1.49,0,0,0,.5-.24l6.81-5h0a1.43,1.43,0,0,0,.29-2,1.18,1.18,0,0,0-.1-.09q.78-1.3,1.62-2.45l.15,0,2.2-.5a1.43,1.43,0,0,0,.64-.33,73.14,73.14,0,0,0,5.46-5.26,9.17,9.17,0,0,0,1-.22l.07.12a16.07,16.07,0,0,0,7.73,6.25C513.1,503.83,513,507.52,513,507.68Zm19.48-20a10.84,10.84,0,0,1-4.77,6.93c-5.36,3.41-12.79,1.48-16.56-4.3a12.88,12.88,0,0,1-1.89-9.68,10.82,10.82,0,0,1,4.76-6.93c5.36-3.41,12.79-1.48,16.57,4.3A12.89,12.89,0,0,1,532.47,487.69Z" transform="translate(-61.77 -206.33)"/><path class="cls-4" d="M512.36,476.89c-1.46,1.87-2.84,6.18-1.55,8.36.39.66,1.61.35,1.48-.46-.29-1.89.95-4.6,2.06-6.07s3-2,4.44-3.08a1.27,1.27,0,0,0,.18-2C516.65,472,513.75,475.1,512.36,476.89Z" transform="translate(-61.77 -206.33)"/><path class="cls-4" d="M478.5,512.3c-1,.48-2.12.75-3.13,1.21a6.8,6.8,0,0,0-2.58,1.5,1.06,1.06,0,0,0-.41.18,2.33,2.33,0,0,0-.59,2.41,7.4,7.4,0,0,0,1.14,3.32.73.73,0,0,0,1.31-.6A9.32,9.32,0,0,1,474,518c0-.17,0-.73,0-.75s0-.19,0-.29a11.39,11.39,0,0,0,2.67-1.59,16.09,16.09,0,0,0,2.75-1.92C480.13,512.81,479.23,512,478.5,512.3Z" transform="translate(-61.77 -206.33)"/><path class="cls-4" d="M494.46,496.09c.16-.41.74-.68,1-1a1.13,1.13,0,0,0,.25-1.11l0-.1a1.07,1.07,0,0,0-1.56-.58A2.3,2.3,0,0,0,493,496,.79.79,0,0,0,494.46,496.09Z" transform="translate(-61.77 -206.33)"/><path class="cls-4" d="M506.53,506.07c-1.28,1.88-3.25,3.88-4.1,6s-3.25,3.54-3.78,5.81c-.27,1.15,1.41,7.32,2.89,5l0-.07a.91.91,0,0,0-.2-1.09c-1.45-1.4.63-4.26,1.55-6.33,1.34-3,3.38-5.7,5-8.56C508.45,505.88,507.09,505.25,506.53,506.07Z" transform="translate(-61.77 -206.33)"/><path class="cls-4" d="M509.82,497a11.18,11.18,0,0,0-.55,2.67,19.92,19.92,0,0,0-.58,2.66c0,.89,1.23.87,1.45.12.5-1.66,1.34-3.32,1.29-5.1A.86.86,0,0,0,509.82,497Z" transform="translate(-61.77 -206.33)"/><path class="cls-4" d="M535.2,471.61a1,1,0,0,0-.75-1.6,3.31,3.31,0,0,0-1.88,1.07c-.46.46-1,.86-1.42,1.36a.54.54,0,0,0-.18.14.84.84,0,0,0,.24,1.26.78.78,0,0,0,.72.12,6.57,6.57,0,0,0,1.7-1c.2-.15.33-.36.52-.5C534.51,472.15,534.87,471.9,535.2,471.61Z" transform="translate(-61.77 -206.33)"/><path class="cls-4" d="M499.77,498.44a1.18,1.18,0,0,0-.84,1.17.93.93,0,0,0,0,.15,1.13,1.13,0,0,0,.16.48,1.19,1.19,0,0,0,.18.22,1.17,1.17,0,0,0,.45.27h0l.17,0a1.08,1.08,0,0,0,1.08-.36l.1-.16.08-.11v0a1,1,0,0,0,.07-.11c.31-.71-.15-1.81-1.07-1.67l-.23,0-.13,0Z" transform="translate(-61.77 -206.33)"/><path class="cls-1" d="M527.35,485.9c2.64-3.32,2.28-8.09-.27-11.53a11.74,11.74,0,0,0-13.06-.66,10.82,10.82,0,0,0-4.76,6.93,12.77,12.77,0,0,0,1.32,8.72c.18.33.36.65.57,1a13.73,13.73,0,0,0,1.06,1.39C518.16,492.88,523.94,490.94,527.35,485.9Z" transform="translate(-61.77 -206.33)"/><path class="cls-2" d="M527.1,474.38h0c2.55,3.45,2.91,8.21.27,11.53-3.41,5-9.19,7-15.15,5.81.18.2.34.41.52.6a13.38,13.38,0,0,0,1.9,1.62,11.73,11.73,0,0,0,13.08.68,10.84,10.84,0,0,0,4.77-6.93,12.89,12.89,0,0,0-1.89-9.68A13.45,13.45,0,0,0,527.1,474.38Z" transform="translate(-61.77 -206.33)"/></g><g id="guy10"><path class="cls-3" d="M660.84,424a22.4,22.4,0,0,0-17.07-7.47c-.71,0-1.43,0-2.14.09a32.89,32.89,0,0,0-16,6,5.27,5.27,0,0,0-.46-.88,4.85,4.85,0,0,0-4.14-2.19c-4,0-7.87,4.15-9.36,5.94a3.37,3.37,0,0,0-.67,1.27,57.1,57.1,0,0,1-3.41,8.57c-2.18,4.72-4.42,9.59-4.76,15.53-7.41,7.32-8.84,24.21-9,34-.26,14.83,1.91,29.85,5.4,37.36.23.5.47,1,.68,1.35l.19.36c6.05,11.6,14.52,14,20.55,14,8,0,16.89-4.4,24.47-12.06,7.29-7.37,12.4-16.71,14-25.63,1-5.42,2.16-10.65,3.28-15.71,2.8-12.55,5.44-24.4,5.44-38.34C667.89,436.9,665.45,429.25,660.84,424Zm-12.45,55.64c0,.08,0,.19-.09.33-.51,1.5-2.07,2.44-1,2.88a179.19,179.19,0,0,1-7.79,18.08c-8.55,17-13.38,17.82-14.27,17.82a2.23,2.23,0,0,1-1.5-.66,11.1,11.1,0,0,1-2.54-3.67c-2.66-9-4.46-21.27-4.84-32.83-.43-13.22,1-24.35,4.13-31.34,0-.08.06-.16.09-.24a17.5,17.5,0,0,1,8.62-9.69,13.68,13.68,0,0,1,5.93-1.44A11.72,11.72,0,0,1,644,443c8.79,9.46,6.56,27,4.44,36.68Z" transform="translate(-61.77 -206.33)"/><path class="cls-5" d="M618.05,515.67c-5.36-18-7.9-50.31-.64-66.77a20.78,20.78,0,0,1,10.33-11.6c-7.88,2-13.53,10.54-16.15,17.07-10.17,20.34-13.56,49.15,5.08,66.09a9.29,9.29,0,0,0,4.89.23A14.73,14.73,0,0,1,618.05,515.67Z" transform="translate(-61.77 -206.33)"/><path class="cls-6" d="M652.27,425.56c-1-3.88-5.28-5-10.37-5.53-7.25.58-14.94,4.49-20.88,11.25,4.79-11-1.45-9.92-6.73-3.62-2.38,8.55-8.1,15.3-8.09,24.77-12.25,9.42-10.38,54.36-3.89,68.33.26.55.53,1,.8,1.56a15.07,15.07,0,0,0,5.09,3.24c13.56,5.08,27.12,1.69,35.59-10.17C660.74,488.26,664.13,454.37,652.27,425.56Zm-30.7,95.13a9.29,9.29,0,0,1-4.89-.23c-18.64-16.95-15.25-45.76-5.08-66.09,2.61-6.54,8.26-15.06,16.15-17.07,6-2.92,13.22-2.54,18.7,3.37,9.37,10.09,7.94,27.53,5.26,39.73C651,483.38,633.75,531,621.57,520.69Z" transform="translate(-61.77 -206.33)"/><path class="cls-5" d="M641.9,420c5.09.55,9.4,1.65,10.37,5.53,11.86,28.81,8.47,62.7-8.47,89.82-8.47,11.86-22,15.25-35.59,10.17a15.07,15.07,0,0,1-5.09-3.24c14.75,28.24,48.22,2,52.72-22.69,3.39-18.58,8.66-34.19,8.66-53.45C664.5,427.07,653.78,419.07,641.9,420Z" transform="translate(-61.77 -206.33)"/><path class="cls-7" d="M613.53,439.68a21.74,21.74,0,0,0,2.47-4.15,14.09,14.09,0,0,0,1.6-4.18,1.49,1.49,0,0,0-2.43-1.27c-2.06,2.19-4.28,6.08-3.39,9.21a1,1,0,0,0,1.77.39Z" transform="translate(-61.77 -206.33)"/><path class="cls-7" d="M627.9,431.1c3-1.84,6.18-3.29,9-5.5,1.41-1.11-.09-3.23-1.66-2.56-3.47,1.49-6.61,3.2-8.73,6.39-.58.87.39,2.28,1.4,1.66Z" transform="translate(-61.77 -206.33)"/><path class="cls-1" d="M638.63,541.54a9.08,9.08,0,0,0,2.21-6.24A11.17,11.17,0,0,0,623.68,532l-.7,9.86C627.59,545.62,633.8,546.37,638.63,541.54Z" transform="translate(-61.77 -206.33)"/><path class="cls-2" d="M640.84,535.29a9.08,9.08,0,0,1-2.21,6.24c-4.83,4.83-11,4.08-15.65.29l-.3,4.22a1.34,1.34,0,0,1-.59,1l-.14.09A11.19,11.19,0,0,0,642.12,541a1.28,1.28,0,0,1,0-.4A11.18,11.18,0,0,0,640.84,535.29Z" transform="translate(-61.77 -206.33)"/><path class="cls-2" d="M620.83,571.31a11.44,11.44,0,0,1-2.29,3,.67.67,0,0,1-.87-.14L615,570.89a.68.68,0,0,1-.13-.58l.92-3.87a80.82,80.82,0,0,0-10.46-3.07c-1.62.37-2.91.65-3.59.79l-.11.63a47.3,47.3,0,0,1,10.67,5.31,1.34,1.34,0,0,1,.56,1l.69,16.86c2.52.64,9.78,2.06,12.73-1.54C624.8,581.79,622.54,575.21,620.83,571.31Z" transform="translate(-61.77 -206.33)"/><path class="cls-2" d="M644.57,543.06a13.87,13.87,0,0,1-20.7,9.4l-.34.57a6.14,6.14,0,0,1-.06.71,1.32,1.32,0,0,1,.92.29c2,1.64,4.2,3.43,5.1,4.08,2.68-1,15.31-7.94,17.32-9.35A6.59,6.59,0,0,0,644.57,543.06Z" transform="translate(-61.77 -206.33)"/><path class="cls-2" d="M583,599.24c2.39.16,5.56-.5,9.51-3.16l4.6-20.51,1.86-11.06c-3.33,7.88-5,16.61-8.64,25.35C588.76,593,586.32,596.93,583,599.24Z" transform="translate(-61.77 -206.33)"/><path class="cls-1" d="M613.13,546.9c7.37-4.91,4.63-14.32,3.08-23.07h-.46c-3.54.14-6.66,1.76-7.08,2.43-.27,1.42,1.61,9.26,3.53,15.79a1.34,1.34,0,0,1-.34,1.33l-7.28,7.28a1.41,1.41,0,0,1-.4.28,1.46,1.46,0,0,1-.35.1c-.36.05-9,1.46-11,9.44a88.54,88.54,0,0,0-2.63,14.31,1.33,1.33,0,0,1-.52,1c-3.29,2.54-12.23,10.1-14,14.6-.87,2.2.25,5.26,2.59,7.11a8.59,8.59,0,0,0,4.75,1.76c3.33-2.31,5.78-6.28,7.32-9.38,3.64-8.74,5.31-17.47,8.64-25.35l.57-3.38a1.34,1.34,0,0,1,1.55-1.1h0A36.19,36.19,0,0,1,613.13,546.9Z" transform="translate(-61.77 -206.33)"/><path class="cls-2" d="M611,553.48a1.34,1.34,0,0,1-.24-2.67h-.08c.87-.22,5.41-3,9.34-5.62l.42-5.93a17.91,17.91,0,0,1-2-3.1,17.91,17.91,0,0,0,2,3.1l.95-13.38a6.52,6.52,0,0,0-5.22-2.05c1.55,8.76,4.29,18.16-3.08,23.07a36.19,36.19,0,0,0-12,13.14,1.32,1.32,0,0,1,1.06,1.28l2.52-.56a1.35,1.35,0,0,1,.48-.11,77.72,77.72,0,0,0,12.9-4,3.88,3.88,0,0,1-1.5-4.11l.09-.25c.4-1.22.72-2.19,2.46-2,.18,0,.39,0,.67,0h1.36a14,14,0,0,1-1.41-1.68C616,551,612.17,553.38,611,553.48Z" transform="translate(-61.77 -206.33)"/><path class="cls-3" d="M644.8,540a13.86,13.86,0,0,0-20.87-11.5l.21-3a1.36,1.36,0,0,0-.23-.85c-1.91-2.81-5.4-4-9.82-3.4-3.4.47-7.31,2.13-8,4.1-.74,2.21,1.89,11.85,3.28,16.66L603,548.47c-2.06.41-10.54,2.62-12.78,11.34a95.62,95.62,0,0,0-2.66,14.2c-2.26,1.79-12.21,9.86-14.39,15.37-1.31,3.31.13,7.6,3.43,10.21,4.6,3.63,11.28,3,17.88-1.58a1.33,1.33,0,0,0,.54-.8l4.73-21.11s.78-4.61,1.45-8.61a45.77,45.77,0,0,1,9,4.44l.7,17.16a1.34,1.34,0,0,0,.93,1.22c.52.17,12.68,4,17.07-2.86a1.34,1.34,0,0,0,.15-1.13c-.48-1.53-4.28-13.55-6.84-18.29l-.69-10.21,1.87-1.12a64.46,64.46,0,0,0,5.23,4c.73.36,1.13.56,10.63-4.59,2.7-1.47,9.07-5,9.69-5.7.76-.91.72-3.07.3-4.74A8.7,8.7,0,0,0,644.8,540ZM631.33,529.3a11.21,11.21,0,0,1,10.79,11.35,1.28,1.28,0,0,0,0,.4A11.18,11.18,0,0,1,622,547.16l.14-.09a1.34,1.34,0,0,0,.59-1l1-14.07A11.1,11.1,0,0,1,631.33,529.3Zm-14.92,34.5c-1.79-.69-3.78-1.31-5.6-1.82,2.24-.62,4.54-1.33,6.53-2.1ZM592.5,596.08c-7.78,5.24-12.55,2.74-14.26,1.39-2.35-1.86-3.46-4.91-2.59-7.11,1.78-4.49,10.71-12.06,14-14.6a1.33,1.33,0,0,0,.52-1,88.54,88.54,0,0,1,2.63-14.31c2-8,10.66-9.38,11-9.44a1.46,1.46,0,0,0,.35-.1,1.41,1.41,0,0,0,.4-.28l7.28-7.28a1.34,1.34,0,0,0,.34-1.33c-1.92-6.53-3.8-14.38-3.53-15.79.42-.67,3.54-2.29,7.08-2.43,1.81-.07,4.21.25,5.67,2l-1.37,19.32c-3.93,2.6-8.47,5.4-9.34,5.62h.08a1.34,1.34,0,0,0,.24,2.67c1.14-.1,5-2.43,8.68-4.84a14,14,0,0,0,1.41,1.68h-1.36c-.28,0-.49,0-.67,0-1.74-.15-2.06.81-2.46,2l-.09.25a3.88,3.88,0,0,0,1.5,4.11,77.72,77.72,0,0,1-12.9,4,1.35,1.35,0,0,0-.48.11l-2.52.56a1.32,1.32,0,0,0-1.09-1.29,1.34,1.34,0,0,0-1.55,1.1l-2.42,14.44Zm21.05-8.1-.69-16.86a1.34,1.34,0,0,0-.56-1,47.3,47.3,0,0,0-10.67-5.31l.11-.62c.68-.14,2-.42,3.59-.79a80.82,80.82,0,0,1,10.46,3.07l-.92,3.87a.68.68,0,0,0,.13.58l2.67,3.28a.67.67,0,0,0,.88.14,11.44,11.44,0,0,0,2.29-3c1.7,3.9,4,10.48,5.45,15.14C623.33,590,616.07,588.62,613.55,588Zm15.94-29.88c-.9-.66-3.12-2.45-5.1-4.08a1.32,1.32,0,0,0-.92-.29,6.14,6.14,0,0,0,.06-.71l.34-.57a13.86,13.86,0,0,0,20.7-9.4,6.59,6.59,0,0,1,2.24,5.7C644.79,550.16,632.17,557.07,629.48,558.1Z" transform="translate(-61.77 -206.33)"/><path class="cls-4" d="M614.22,538.44c.12-2.19-.07-4.35,0-6.54a10.6,10.6,0,0,0,0-2.37.33.33,0,0,0-.05-.12l0-.08a4.6,4.6,0,0,0-.06-2.29c-.44-2.42-4.13-1.77-3.76.66a6.46,6.46,0,0,0,.44,1.78c.65,1.37-.45-.72.17.58.14.28.32.84.23.3a8.38,8.38,0,0,0,.29,1.21,33.53,33.53,0,0,1,.82,3.91,25.82,25.82,0,0,1,.55,3C612.85,539.31,614.18,539.23,614.22,538.44Z" transform="translate(-61.77 -206.33)"/><path class="cls-4" d="M589,577.38c-.78.83-1.67,1.51-2.42,2.37-1.27,1.45-2.3,3.11-3.71,4.45a19.32,19.32,0,0,0-4.71,6c-1.14,2.37,2.22,4.47,4.05,2.84s2.33-4.11,3.28-6.13c1.4-3,3.33-5.65,4.79-8.58C590.64,577.57,589.54,576.79,589,577.38Z" transform="translate(-61.77 -206.33)"/><path class="cls-4" d="M611.49,545.08c-1.95,1.64-3.61,3.55-5.45,5.31-2.62,2.49-6.58,2.93-9.3,5.44-4.72,4.35-3.9,11.89-5.77,17.42a1,1,0,0,0,1.93.71c2.8-7.35,1-14.86,9.29-19.19a31.54,31.54,0,0,0,10.39-8.7C613.14,545.41,612.12,544.54,611.49,545.08Z" transform="translate(-61.77 -206.33)"/><path class="cls-4" d="M630.78,530.26a4.42,4.42,0,0,0-1.58.27c-.62.18-1.29-.06-1.89.12-1.19.34-1.6,1.23-2.56,1.89a1,1,0,0,0,.08,1.62l.1.08a.86.86,0,0,0,1,0c-.62.48.67,0,.89-.13.91-.46,1.44-.16,2.36-.29,1.81-.26,3.47.93,5.32.93.82,0,1.75-.68,1.49-1.62C635.42,530.88,632.79,530.46,630.78,530.26Z" transform="translate(-61.77 -206.33)"/><path class="cls-4" d="M615.52,577a.7.7,0,0,0-1.37.05,16.52,16.52,0,0,0-.13,5.34c.31,1.65-.46,3.37.77,4.76a1.22,1.22,0,0,0,1.92-.09c.75-1.41.2-2.93-.12-4.44C616.2,580.78,615.79,578.91,615.52,577Z" transform="translate(-61.77 -206.33)"/></g></svg>