<svg xmlns="http://www.w3.org/2000/svg" viewBox="0 0 531.53 520.47"><defs><style>.cls-1{fill:#fff;stroke:#231f20;stroke-miterlimit:10;}.cls-2{font-size:12px;fill:#231f20;font-family:MyriadPro-Regular, Myriad Pro;}.cls-3{letter-spacing:-0.01em;}.cls-4{letter-spacing:0em;}.cls-5{letter-spacing:-0.01em;}.cls-6{letter-spacing:-0.01em;}.cls-7{letter-spacing:-0.06em;}.cls-8{letter-spacing:-0.01em;}.cls-9{letter-spacing:-0.01em;}.cls-10{letter-spacing:0.01em;}.cls-11{letter-spacing:-0.04em;}.cls-12{letter-spacing:-0.02em;}.cls-13{letter-spacing:0.02em;}.cls-14{letter-spacing:0em;}.cls-15{letter-spacing:0em;}</style></defs><title>kraken-aws-resources</title><g id="Layer_1" data-name="Layer 1"><rect class="cls-1" x="424.18" y="0.5" width="106.84" height="75.26"/><text class="cls-2" transform="translate(426.82 12.18)">ECS <tspan class="cls-3" x="21.32" y="0">C</tspan><tspan x="28.15" y="0">o</tspan><tspan class="cls-4" x="34.74" y="0">n</tspan><tspan x="41.35" y="0">tainer</tspan></text></g><g id="Layer_1_copy" data-name="Layer 1 copy"><rect class="cls-1" x="422.87" y="132.61" width="106.84" height="75.26"/><text class="cls-2" transform="translate(425.5 144.28)"><tspan class="cls-5">L</tspan><tspan x="5.5" y="0">oad Balan</tspan><tspan class="cls-6" x="54.74" y="0">c</tspan><tspan x="60.05" y="0">er</tspan></text></g><g id="Layer_1_copy_7" data-name="Layer 1 copy 7"><rect class="cls-1" x="422.87" y="272.61" width="106.84" height="75.26"/><text class="cls-2" transform="translate(425.5 284.28)"><tspan class="cls-7">T</tspan><tspan x="5.2" y="0">a</tspan><tspan class="cls-8" x="10.98" y="0">r</tspan><tspan x="14.81" y="0">get G</tspan><tspan class="cls-9" x="41.79" y="0">r</tspan><tspan x="45.6" y="0">oup</tspan></text></g><g id="Layer_1_copy_2" data-name="Layer 1 copy 2"><rect class="cls-1" x="95.5" y="183.66" width="106.84" height="75.26"/><text class="cls-2" transform="translate(98.13 195.34)"><tspan class="cls-10">S</tspan><tspan x="5.99" y="0">calable</tspan><tspan class="cls-11" x="41.44" y="0"> </tspan><tspan class="cls-7" x="43.49" y="0">T</tspan><tspan x="48.68" y="0">a</tspan><tspan class="cls-8" x="54.47" y="0">r</tspan><tspan x="58.29" y="0">get</tspan></text></g><g id="Layer_1_copy_3" data-name="Layer 1 copy 3"><rect class="cls-1" x="1.82" y="323.13" width="106.84" height="75.26"/><text class="cls-2" transform="translate(4.45 334.81)"><tspan class="cls-10">S</tspan><tspan x="5.99" y="0">caling </tspan><tspan class="cls-12" x="38.7" y="0">P</tspan><tspan x="44.78" y="0">oli</tspan><tspan class="cls-13" x="57.01" y="0">c</tspan><tspan x="62.6" y="0">y</tspan></text></g><g id="Layer_1_copy_4" data-name="Layer 1 copy 4"><rect class="cls-1" x="158.13" y="320.5" width="106.84" height="75.26"/><text class="cls-2" transform="translate(160.76 332.18)"><tspan class="cls-10">S</tspan><tspan x="5.99" y="0">caling </tspan><tspan class="cls-12" x="38.7" y="0">P</tspan><tspan x="44.78" y="0">oli</tspan><tspan class="cls-13" x="57.01" y="0">c</tspan><tspan x="62.6" y="0">y</tspan></text></g><g id="Layer_1_copy_5" data-name="Layer 1 copy 5"><rect class="cls-1" x="0.5" y="444.71" width="106.84" height="75.26"/><text class="cls-2" transform="translate(3.13 456.39)"><tspan class="cls-14">A</tspan><tspan x="7.31" y="0">la</tspan><tspan class="cls-15" x="15.92" y="0">r</tspan><tspan x="19.9" y="0">m</tspan></text></g><g id="Layer_1_copy_6" data-name="Layer 1 copy 6"><rect class="cls-1" x="156.82" y="444.71" width="106.84" height="75.26"/><text class="cls-2" transform="translate(159.45 456.39)"><tspan class="cls-14">A</tspan><tspan x="7.31" y="0">la</tspan><tspan class="cls-15" x="15.92" y="0">r</tspan><tspan x="19.9" y="0">m</tspan></text></g></svg>